<?xml version="1.0" encoding="UTF-8"?>
<svg id="a" data-name="Layer 1" xmlns="http://www.w3.org/2000/svg" xmlns:xlink="http://www.w3.org/1999/xlink" viewBox="0 0 1000 1000">
  <defs>
    <style>
      .c {
        fill: none;
      }

      .d {
        clip-path: url(#b);
      }

      .e {
        fill: #212121;
      }
    </style>
    <clipPath id="b">
      <path class="c" d="M685.89,698.42l31.47,9.69c0-129.57,100.5-179.91,178.6-199.47v376.8c-125.8-13.48-258.63-20.68-395.95-20.68s-270.17,7.21-395.97,20.68v-199.7c245.45-74.91,231.58-286.13,231.58-286.13l-31.47-9.69c0,141.85-120.48,188.72-200.11,204.22V207.71c125.8,13.48,258.65,20.68,395.97,20.68s270.15-7.21,395.95-20.68v211.73c-223.11,80.3-210.07,278.99-210.07,278.99Z"/>
    </clipPath>
  </defs>
  <path class="e" d="M685.89,698.42l31.47,9.69c0-129.57,100.5-179.91,178.6-199.47v376.8c-125.8-13.48-258.63-20.68-395.95-20.68s-270.17,7.21-395.97,20.68v-199.7c245.45-74.91,231.58-286.13,231.58-286.13l-31.47-9.69c0,141.85-120.48,188.72-200.11,204.22V207.71c125.8,13.48,258.65,20.68,395.97,20.68s270.15-7.21,395.95-20.68v211.73c-223.11,80.3-210.07,278.99-210.07,278.99Z"/>
  <g class="d">
    <polygon points="184.23 746.11 184.24 746.11 184.23 746.1 184.23 746.1 184.23 746.11"/>
    <path d="M652.16,679.18c-.57-1.27-1.46-1.57-2.67-.88h0c-.82.13-1.64.26-2.45.39-2.88.28-5.61,1.11-8.25,2.25-1.35.3-2.69.6-4.04.91h0c-2.66.32-5.32.64-7.98.97-.46-.04-.92-.09-1.37-.13-.28-.09-.55-.06-.8.1h0c-1.28-.03-2.57-.06-3.85-.09-1.71-.16-3.42-.33-5.13-.49h0c-2.02-.13-4.04-.26-6.06-.39-2.01-.46-4.01-.33-6.01.06-.29-.05-.56-.02-.83.1h0c-1.64-.49-3.23-.52-4.74.42-3.08-.72-5.88.85-8.83,1.1-.83-.43-1.52-.07-2.2.37h0c-2.16.37-4.33.73-6.49,1.1-1.94-.81-3.54,1.22-5.45.66-.86-.47-1.61-.15-2.35.32h0c-2.65.24-5.3.47-7.94.71h0c-3.08.19-6.16.38-9.24.57-3.85.28-7.8-1.21-11.56.63h0c-.63.26-1.26.52-1.89.77h0c-2.33-.25-4.54-.15-5.99,2.11h0c-2.29-.13-4.05,1.12-5.85,2.27h0c-.31.06-.6.16-.87.3,0,0,0,0,0,0-4.78.54-8.2,3.9-12.27,5.9h0c-2.11,1.18-4.22,2.36-6.33,3.55h0c-.61.32-1.22.65-1.84.97h0c-1.22.69-2.43,1.39-3.65,2.08h0c-3.02,1.66-6.03,3.32-9.05,4.98h0c-.61.35-1.22.71-1.83,1.06h0,0c-5.57,1.34-9.4,5.82-14.48,8.05-3.31,2.07-7.23,3.22-9.77,6.45-.49.36-.98.72-1.48,1.09-.98.55-2.08.98-2.27,2.31,0,0,0,0,0,0-3.12,2.49-6.12,5.1-8.52,8.33-1.87,1.09-3.77,2.14-4.79,4.2-.32.03-.59.15-.83.36-1.56.89-3.47,1.36-4.17,3.33,0,0,0,0,0,0-.25.18-.48.39-.69.62h0c-5.06,1.78-8.82,5.59-13.18,8.47h0c-1.46,1.01-3.56,1.25-4.09,3.39,0,0,0,0,0,0-1.84,1.1-4.09,1.67-5.07,3.9,0,0,0,0,0,0-5.32,5.06-12.83,7.28-17.31,13.41h0c-2.38,2.13-4.76,4.27-7.14,6.4-4.56,3.19-10.25,4.57-14.07,8.92,0,0,.14.08.14.08,0,0,0,0,0,0-.05-.03-.1-.05-.14-.08-1.83-.14-3.33.77-4.9,1.49,0,0,0,0,0,0-6.73.08-12.34,3.21-17.89,6.54-3.03,2.34-7.33,2.86-9.45,6.52-.6.34-1.21.67-1.81,1.01h0c-.31.15-.6.33-.88.52-2.51,1.91-6.08,2.32-7.73,5.46,0,0,0,0,0,0-3.54.66-6.57,2.25-8.95,5,0,0,0,0,0,0-5.16.49-8.69,4.36-13.14,6.33-1.51.85-3.02,1.7-4.53,2.55,0,0,0,0,0,0h0c-1.23.64-2.45,1.29-3.68,1.93-2.76.62-5.37,1.6-7.74,3.17h0s0,0,0,0c-5.05,2.28-10.35,4.06-15,7.18-2.1,1.18-4.2,2.37-6.3,3.55-.62.3-1.25.6-1.87.9h0c-3.93,1.89-7.34,4.41-9.79,8.1h0s0,0,0,0c-1.92.81-2.33,2.86-3.53,4.26h0c-1.96,2.42-4.36,4.54-5.34,7.65,0,0,0,0,0,0-.78,1.32-1.56,2.64-2.34,3.96,0,0,0,0,0,0h0c-3.11,4.82-6.15,9.67-8.14,15.09-.18.48-.36.96-.54,1.43-.28.92-.57,1.84-.85,2.77-.53,1.15-1.05,2.29-1.58,3.44-.88,1.3-1.77,2.6-2.65,3.91-.35.05-.63.21-.85.48h0c-1.31,1.3-2.23,2.8-2.33,4.7,0,0,0,0,0,0-1.42,1.61-2.84,3.22-4.26,4.84-2.46.54-4.93,1.07-7.39,1.61,0,0,0,0,0,0-3.53-1.46-6.8-.17-10.09.94h0c-2.2-1.4-5.16.03-7.21-1.92h0c-.42-.89-.84-1.77-1.26-2.66h0c-.42-2.8-.89-5.59-.06-8.39,1.1-2.08,1.96-4.19,1.07-6.59h0c.09-1.24.18-2.48.27-3.72h0c-.2-1.84-.41-3.68-.61-5.51,0,0,0,0,0,0,.57-5.03-.3-9.94-1.28-14.83h0c.95-2.43.81-4.95.57-7.48h0c.16-6.82.33-13.63.49-20.45-.02-.77-.03-1.53-.05-2.3,1.01-1.63.71-3.4.53-5.16h0s0,0,0,0c-.43-3.09.93-6.23-.32-9.29,1.4-3.98.44-8.04.36-12.07h0c.98-5.5.3-10.91-.93-16.29-.41-.92-.82-1.84-1.23-2.76,0,0,0,0,0,0,.03-1.22.06-2.45.09-3.67h0c-.03-.26-.09-.51-.17-.76,0,0,0,0,0,0,2.7-4.39,4.94-9.15,9.71-11.84h0c1.74-2.4,4.52-3.37,6.82-4.99.32-.11.59-.27.83-.51h0c1.13-.17,2.26-.34,3.39-.51,3.36,6.1,8.97,4.03,14.05,3.86h0s0,0,0,0c.33-.08.64-.19.94-.34,6.86.86,13.24-1.63,19.81-2.81h0c1.87-.21,3.74-.41,5.61-.62,1.52,1.85,3.69,1.16,5.61,1.46h0c1.25.12,2.49.25,3.74.37,6.6,1.43,13.01.14,19.41-1.32h0c8.75-.95,17.22-3.27,25.81-5.01,2.52-.28,5.06-.45,7.34-1.73h0c1.08-.2,2.16-.4,3.24-.59,2.63.14,4.88-1.29,7.36-1.79h0c2.83-.27,5.68-.48,8.18-2.06,0,0,0,0,0,0,7.62-1.8,14.34-5.59,21-9.52h0c1.79-1.04,3.58-2.08,5.37-3.12h0c1.8-1.13,4.26-1.36,5.07-3.81h0c6.13-3.67,10.64-9.21,16.01-13.77,3.32-2.93,6.87-5.65,8.99-9.7,1.28-1.15,2.55-2.3,3.83-3.45h0,0c2.53-2.61,5.06-5.22,7.59-7.82h0c5.83-4.28,11.96-8.3,13.9-15.96,0,0,0,0,0,0,1.13-.75,1.59-1.85,1.58-3.17,1.16-1.47,2.33-2.94,3.49-4.41h0c.4-.65.81-1.3,1.21-1.94h0c3.28-1.86,4.83-5.37,7.48-7.82h0c.16-.44.32-.87.48-1.31,3.35-2.22,5.38-5.74,8.26-8.42h0c3.1-4.6,8.81-6.08,12.26-10.26h0c6.6-3.37,11.52-8.53,15.49-14.67,1.29-.74,1.88-1.85,1.75-3.34h0c.97-.59,2.1-1.02,2.18-2.42,2-2.74,4-5.49,6.01-8.23,0,0,0,0,0,0,0,0,0,0,0,0,1.6-2.3,3.55-4.39,4.47-7.12.49-.94.97-1.88,1.46-2.83.15-.15.25-.32.28-.53,3.5-3.56,5.68-8.06,8.63-12.01h0s0,0,0,0c.58-1.09,1.15-2.19,1.73-3.28,1.77-1.9,4.02-3.55,3.5-6.65h0c.94-.61,2.07-1.06,2.16-2.42,2.09-2.33,3.63-4.92,3.83-8.14h0c2.92-2.7,3.34-6.66,5.03-9.98,1.78-5.34,4.23-10.45,5.21-16.05h0c.13-1.24.25-2.48.38-3.72.67-1.6,1.35-3.19,2.02-4.79h0c2.04-3.8,2.24-8.02,2.82-12.16,1.41-3.16,2.5-6.4,2.68-9.89.24-2.47.47-4.94.71-7.41,1.09-2.24,1.7-4.62,1.92-7.1,3.34-9.21,7.23-18.24,9.44-27.84,1.95-3.22.79-6.85,1.37-10.26,2.24-4.13,1.52-8.75,2.18-13.15h0c.47-2.94,1.31-5.85.94-8.88h0c.59-3.9,1.18-7.8,1.78-11.7,1.07-1.61-.97-2.69-.5-4.68,1.31-5.63-.1-11.39-.98-17.06h0c1.27-4.92.46-9.99,1.02-14.96h0c.15-5.2-.83-10.06-4.28-14.17-1.3-1.69-3.22-3.23-5.06-2.33-1.44.7-.31,3.12-.33,4.76,0,.49.22.99.35,1.48,0,0,0,0,0,0,.02.73.05,1.46.07,2.2h0c-1.06,4.59-2.12,9.19-3.17,13.78,0,0,0,0,0,0-.84,2.51-2.68,4.68-2.56,7.52h0c-1.73,9.46-5.24,18.35-8.58,27.3-.36.68-.73,1.37-1.09,2.05h0c-.92,2.01-1.85,4.01-2.77,6.02h0c-1.45,2.61-3.42,4.98-3.78,8.09h0s0,0,0,0c-.42.64-.85,1.28-1.27,1.91h0c-3.34,4.65-6.67,9.31-10.01,13.96-.3.18-.59.36-.89.54h0c-2.54,1.72-4.75,3.73-5.79,6.74-2.67,2.53-3.25,6.34-5.56,9.1-2.05,1.76-3.53,3.97-4.92,6.24-3.02,3.72-6.05,7.45-9.07,11.17h0c-1.56,1.57-3.56,2.72-4.58,4.81h0c-.27.17-.52.34-.78.53h0c-1.25.79-2.91,1.11-3.26,2.9-.27.17-.54.36-.78.57-.75.38-1.34.88-1.4,1.8h0c-4.89,2.94-9.17,6.59-12.96,10.84-3.11,1.81-6.17,3.69-8.05,6.92-2.96,1.2-5.03,3.61-7.45,5.53-.77.8-1.54,1.61-2.31,2.41h0c-4.3,3.61-8.6,7.21-12.9,10.82-1.34,1.14-2.69,2.28-4.04,3.42h0c-1.46,1.03-3.61,1.23-4.12,3.41,0,0,0,0,0,0-1.93,1.51-4.8,1.77-5.88,4.41.06.02.11.03.17.05-.02,0-.04.01-.06.02,0,0-.11-.07-.11-.07-2,1.39-4.49,2.15-5.76,4.49-.3.17-.6.34-.89.52-4.67,2.52-8.87,5.67-12.65,9.38-1.17.69-2.34,1.39-3.52,2.08h0c-.9.5-1.9.89-2.68,1.53-14.36,11.93-28.69,23.89-43.03,35.84-3.8,2.71-7.48,5.54-10.31,9.31h0c-4.12,3.91-8.23,7.83-12.35,11.74-.99.58-2.16,1.01-2.2,2.44h0c-2.08.76-3.33,2.57-4.94,3.92-1.2.81-2.88,1.1-3.18,2.91,0,0,0,0,0,0-5.26,3.69-8.87,8.84-12.42,14.05-1.76.98-2.87,2.47-3.47,4.37h0c-3.71,5.91-9.4,9.78-14.61,14.14h0c-10.26,5.04-16.58,14.46-24.53,22.06h0c-10.52,7.8-14.38,20.14-20.84,30.7h0c-.4.66-.8,1.33-1.21,1.99,0,0,0,0,0,0-4.18,6.59-8.54,13.12-7.16,21.56-.23.18-.45.38-.67.58h0c-1.38.35-2.76.69-4.14,1.04h0c-5.32.78-9.06,3.99-12.3,7.97-.26.21-.51.43-.76.66-1.28,1.91-3.47,3.16-4.01,5.6,0,0,0,0,0,0-1.14,1.55-2.28,3.09-3.41,4.64-2.69-1.7-1.41-4.83-2.56-7.09,0,0,0,0,0,0,0-2.77,0-5.55-.01-8.32.07-1.24.14-2.48.22-3.72h0s0,0,0,0c-.13-.3-.26-.59-.4-.89h0c.62-7.78-.55-15.47-1.12-23.19h0c-.26-1.85-.52-3.7-.78-5.55h0c.09-.48.18-.97.27-1.45-.37-4.62.57-9.27-.43-13.87h-.01c1.17-4.43.92-8.96.96-13.48,0,0,0,0,0,0,.77-2.03.77-4.05-.02-6.08,0,0,0,0-.01,0,1.38-2.87.43-5.94.77-8.9.14-2,.29-4,.43-6h0c.59-1.78,1.01-3.64,1.79-5.33,2.98-6.47,5.52-13.36,13.16-16.02h0s0,0,0,0c3.76,1.3,7.5,2.85,11.45.63h0c1.19-.68,2.37-1.36,3.56-2.04,1.51-.86,3.02-1.72,4.53-2.58,3.58-2.06,7.17-4.11,10.75-6.17.94-.48,1.88-.97,2.81-1.45,1.94-1.51,3.88-3.02,5.81-4.53,0,0,0,0,0,0h0c2.19-2.91,5.91-4.29,7.66-7.65,0,0,0,0,0,0,4.28-3.64,8.56-7.29,12.83-10.93h0c1.76-.94,2.45-2.78,3.56-4.27h0c2.35-2.5,4.84-4.89,6.15-8.18,1.32-.98,2.26-2.21,2.63-3.84h0c.16-.42.32-.84.48-1.26,1.1-1.52,2.21-3.04,3.31-4.56h0c1.2-2.19,2.41-4.37,3.61-6.55h0c1.11-1.52,2.23-3.05,3.34-4.57.58-1.05,1.16-2.11,1.74-3.16,2.79-2.79,4.92-6.02,6.59-9.57,0,0,0,0,0,0,1.81-3.45,5.35-5.72,6.49-9.61,2.71-3.09,5.22-6.29,6.06-10.46h0c.64-1.64,1.28-3.27,1.92-4.91h0c.95-1.18,1.32-2.56,1.38-4.05h0c.14-.44.28-.89.43-1.33.5-1.18,1-2.36,1.5-3.53h0c.33-.92.66-1.83.98-2.74,0,0,0,0,0,0,.63-1.63,1.27-3.26,1.9-4.89h0c1.51-2.57,2.02-5.47,2.69-8.31.23-.95.47-1.89.7-2.84h0s.02,0,.02,0c0,0,0,0,0,0h0s0,0,0,0c.36-.68.72-1.36,1.08-2.05h0c1.37-2.58,2.21-5.33,2.64-8.22h0c.39-.69.78-1.38,1.17-2.07.36-.9.73-1.81,1.09-2.71,0,0,0,0,0,0,1.12-2.44,2.49-4.79,2.81-7.54.31-.75.62-1.5.93-2.24h0c1.27-3.16,3.59-5.98,3.15-9.69l-.46-.04s0-.02,0-.04c.15.02.31.05.46.08,3.33-3.65,3.79-8.6,5.83-12.83.9-2.54,1.79-5.08,2.69-7.62.88-1.26,1.29-2.65,1.23-4.19h0s0,0,0,0c1.05-4.54,2.1-9.08,3.15-13.62.28-1.69.55-3.38.83-5.07h0c1.51-3.66,2.6-7.44,3.12-11.37.45-1.4.9-2.79,1.35-4.19,0,0,0,0,0,0,1.12-1.68,1.66-3.54,1.68-5.55,0,0,0,0,0,0,.74-.89,1.08-1.88.74-3.03,0,0,0,0,0,0,1.24-.72,1.59-1.88,1.63-3.21h0c.84-2.34,1.73-4.68,1.65-7.23.3-.91.6-1.82.91-2.73h0s0,0,0,0c.82-5.31,3.05-10.36,2.89-15.85h0,0c.04-.78.08-1.55.11-2.33,0,0,0,0,0,0,.37-1.43.75-2.87,1.12-4.3h0c.14-.47.28-.93.42-1.4h0c.24-.94.47-1.89.71-2.83h0c.5-3.43,1.01-6.85,1.51-10.28.76-3.59,1.53-7.17,2.29-10.76,0,0,0,0,0,0l-.04-.04c.28-.92.55-1.85.83-2.77h0c.13-.47.26-.94.38-1.41h0c1.63-4.86,3.8-9.6,3.56-14.91.16-.49.32-.99.48-1.48,0,0,0,0,0,0,1.36-4.3,1.53-8.78,1.95-13.22.77-4.66,1.85-9.28,1.63-14.05,0,0,0,0,0,0h0c2.37-2.29.5-5.39,1.52-7.94.94-.71.93-1.74.9-2.77h0c.11-.47.22-.95.33-1.42.9-1.27,1.22-2.71,1.28-4.23h0c1-4.56,2.01-9.12,3.01-13.68h0c1.92-8.74,3.77-17.5,3.1-26.54.73-2.46.96-4.94.5-7.48.93-4.98,1.12-9.99.9-15.04h0s0,0,0,0c.14-2,.28-4,.41-6h0c.11-.46.22-.92.33-1.38,1.51-2.37.05-5.07.82-7.52,0,0,0,0,0,0,.21-2.17.41-4.34.62-6.51h0c.08-4.36.17-8.72.25-13.08.12-4.47.25-8.93.37-13.4h0c-.02-4.14,1.49-8.35-.6-12.39,1.95-4.57,1.98-9.34,1.41-14.16-.03-.27-.12-.53-.27-.76,1.77-1.97,1.33-4.33,1.18-6.65h0c.51-3.27,1.22-6.54.16-9.84,0-.27-.06-.53-.2-.77h0c1.21-7.64.47-15.28,0-22.92.44-1.59,0-3.12-.38-4.64.22-1.38.08-2.7-.68-3.91-.44-2.75-.87-5.5-1.31-8.25.65-.7.46-1.41.03-2.12.07-.29,0-.55-.19-.78h0s0,0,0,0c.19-4.56.38-9.11.56-13.67.4-1.56.52-3.12-.16-4.65.01-.42.02-.85.03-1.27.29-1.09.31-2.1-.89-2.71,1.53-2.04,1.71-4.08-.07-6.08.39-.67.79-1.34,1.18-2.02-.51-.91-1.01-1.81-1.52-2.72-.17-.3-.34-.6-.51-.91-2.83-1.37-4.89-.36-6.25,2.21-1.5,2.84-2.82,5.78-4.22,8.67-2.72,4.75-5.61,9.41-7.51,14.59-1.11,2.2-2.22,4.4-3.33,6.61-2.52,4.06-5.04,8.11-7.56,12.17-.18.29-.37.58-.55.86h0c-.69.99-1.39,1.98-2.08,2.96h0c-2.09,2.97-4.05,6.01-5.42,9.39-.6,1.07-1.2,2.14-1.81,3.21h0c-.44.67-.87,1.33-1.31,2-1.48,2.31-2.96,4.61-4.45,6.92-1.25,1.41-2.76,2.65-3.16,4.64-.47.6-.95,1.21-1.42,1.81h0c-1.3,1.03-2.13,2.37-2.64,3.93-1.22,1.02-2.06,2.28-2.51,3.81-.73.46-1.32,1.01-1.37,1.94-.18.42-.36.84-.55,1.26h0c-2.55,2.97-4.62,6.24-6.21,9.82-2.7,3.61-5.08,7.4-6.69,11.63-1.46,1.55-2.15,3.5-2.89,5.43-.9,2.54-1.79,5.07-2.69,7.61-.51,1.42-1.03,2.85-1.54,4.27-.14.42-.28.85-.42,1.27h0c-1.1,1.97-2.14,3.96-2.31,6.27-.32.88-.64,1.76-.96,2.63h0c-.73,2.15-1.45,4.31-2.18,6.46-1.8,1.97-1.34,4.63-2.11,6.91-.27.94-.55,1.88-.82,2.83-1.36,2.63-2.21,5.41-2.5,8.36-1.22,3.98-2.43,7.95-3.65,11.93-.16.52-.33,1.03-.49,1.55,0,0,0,0,0,0-1.03,3.26-2.78,6.29-3.07,9.78-.45,1.44-.9,2.87-1.35,4.31,0,0,0,0,0,0-1.7,1.63-2.02,3.83-2.44,5.99-1.69,1.4-1.74,3.64-2.78,5.37h0c-1.98,3.44-4.76,6.54-4.69,10.87h0c-2.31,2.17-3.69,4.78-3.75,8,0,0,0,0,0,0-1.25.77-1.76,1.94-1.8,3.37h0c-.85,1.82-2.77,3.06-2.84,5.3.24,2.01-1.54,3.13-2.09,4.79h0c-2.27,5.19-4.54,10.38-6.81,15.57-1.41,1.82-2.41,3.81-2.63,6.14h0c-.85,2.02-1.69,4.04-2.54,6.07,0,0,0,0,0,0-3.63,7.06-6.84,14.3-9.16,21.9,0,0,0,0,0,0-1.17.73-1.75,1.78-1.72,3.16h0c-2.53,4.06-3.94,8.61-5.77,12.98h0c-1.16,2.45-2.83,4.7-2.9,7.56h0c-.73.45-1.43.92-1.34,1.93h0c-.31.91-.61,1.83-.92,2.74,0,0,0,0,0,0-1.91,4.3-3.81,8.61-5.72,12.91-.53,1.14-1.06,2.28-1.6,3.42h0c-.79.69-1.05,1.59-1.03,2.6h0c-.35.75-.69,1.49-1.04,2.23,0,0,0,0,0,0-1.27,2.34-2.93,4.5-3.3,7.26,0,0,0,0,0,0-.4.68-.81,1.36-1.22,2.04h0c-.11.47-.22.95-.33,1.42h0c-.29.9-.57,1.81-.86,2.71h0c-1.76,2.19-3.09,4.55-2.95,7.48,0,0,0,0,0,0-1.55.93-1.54,2.73-2.28,4.11h0c-1.17,2.43-2.61,4.76-3.03,7.49-1.89,4.52-3.78,9.05-5.67,13.57h0c-4.44,8.04-7.85,16.51-10.53,25.29-.17.46-.33.93-.5,1.39-.78,2.25-1.56,4.5-2.33,6.75h0c-1.13,2.01-1.92,4.14-2.21,6.45-1.47,3.97-2.94,7.94-4.42,11.91,0,0,0,0,0,0-1.3,2.35-2.14,4.86-2.49,7.53-1.12,3.73-2.24,7.46-3.35,11.19h0c-.55,1.85-1.11,3.7-1.66,5.55h0c-.75,2.12-1.5,4.24-2.25,6.36-1.41,3.17-1.01,6.85-2.85,9.89-2.29-.32-.99-2.6-1.99-3.63-.09-1.55-.18-3.1-.27-4.64h0c-.08-.31-.2-.6-.35-.87-.07-3.58-.14-7.15-.2-10.73h0c.06-2.01.11-4.03.17-6.04-.15-1.06-.31-2.11-.46-3.17h0c.6-3.91,1.2-7.81,1.79-11.71h0c1.44-3.67,2.56-7.42,3.12-11.33.25-1.72.49-3.45.74-5.17,0,0,0,0,0,0,1.49-5.01,2.66-10.06,1.99-15.36.23-.07.22-.22.14-.4.12-.34.24-.67.36-1.01h0c1.37-8.26,2.66-16.44,6.84-24.02,3.69-6.7,6.39-13.96,9.53-20.96h0c2.92-8.08,5.95-16.11,8.73-24.23,4.93-14.39,6.98-29.47,10.1-44.29,1.73-8.22,2.6-16.62,3.86-24.93h0c1.86-5.65,2.1-11.6,3.27-17.38h0s0,0,0,0c4.05-22.21,6.8-44.51,5.27-67.16-.8-11.87-1.39-23.76-2.07-35.64h0c-.44-8.51-.88-17.03-1.33-25.54-1.23-15.97-2.61-31.93-2.9-47.97-.18-10.12-.32-20.26-1.6-30.33h0c.72-1.97.28-3.79-.69-5.54h0c.3-7.65.26-15.27-2.05-22.69.97-4.55.03-9.1-.25-13.62-.31-5.04.57-10.23-1.53-15.1.25-11.58.41-23.36-3-34.38-4.61-14.88-12.14-28.75-16.85-43.67h0c.32-2.32-.26-4.45-1.32-6.48-1.44-2.23-1.48-4.89-2.24-7.32-2.66-8.47-1.98-17.8-6.69-25.72,0,0,0,0,0,0h0v.03c.82-1.99.25-3.81-.7-5.58h0c-1.32-7.75-4.08-15.07-6.64-22.45h0c.56-3.13.44-6.22-.51-9.27,0,0,0,0,0,0h0c-.15-1.54-.37-3.07-.45-4.61-.83-17.14-3.49-33.84-11.83-49.18-2.76-5.68-5.49-11.38-8.28-17.05-.62-1.26-1.48-2.45-3.12-2.15-1.26.23-1.3,1.39-1.39,2.43-.7,8-1.41,15.99-2.12,23.98-.52.75-.35,1.5.02,2.24h0c-1.02,1.85-1.34,3.84-1.52,5.94-.77,8.67-.6,17.34-3.44,25.92-1.47,4.44-3.85,8.84-4.1,13.72-.7.42-1.26.94-1.24,1.85-3.1,2.89-4.39,6.81-6.01,10.55-2.28,3.6-5.11,6.93-5.55,11.42-.89,1.48-2.21,2.77-2.07,4.7h0c-5.36,9.06-4.34,20.24-9.73,29.28-.12,1.24-.24,2.47-.36,3.71h0c-1.65,4.88-3.31,9.76-4.96,14.64h0c-.26.95-.52,1.91-.78,2.86,0,0,0,0,0,0,0,0,0,0,0,0-.72.43-1.24.99-1.2,1.9-.11,1.24-.22,2.48-.33,3.73,0,0,0,0-.01,0h0c-.15.46-.3.92-.45,1.37h0c-2.42,7.37-2.44,15.2-4.39,22.67-3.83,14.68-4.98,29.56-3.08,44.65-.77,3.56-.99,7.12.02,10.67,0,0,0,0,0,0-.08,1.25-.17,2.49-.25,3.74-.01,2.79-.03,5.58-.04,8.37h0c.24,6.54-.43,13.04-1.04,19.54h0c-2.24,9.1-3.68,18.34-4.7,27.65h0c-.76,6.39-1.52,12.78-2.28,19.17-.64,4.79-.72,9.59-.36,14.4h0c-.49.79-.28,1.56.09,2.32,0,0,0,0,0,0-.4,6.21-.14,12.4.89,18.54-.15,9.95,1.39,19.78,2.35,29.64.14.3.29.59.45.88h0c-.58,1.59-.41,3.14.27,4.66.95,14.91,3.54,29.6,5.77,44.34-.36,3.03.7,5.86,1.3,8.75,0,0,0,0,0,0-.6,1.59-.4,3.13.27,4.65.2,1.07.39,2.15.59,3.22.43,9.34,1.61,18.58,3.65,27.71,1.15,6.8,1.93,13.68,4.16,20.26h0c-.22,4.14,1.52,7.95,1.99,11.97h0c1.08,3,.76,6.41,2.69,9.17h0c.4,6.62,2.74,12.86,3.79,19.35h0c1.64,5.81,3.28,11.61,4.92,17.42h0c1.18,4.91,2.35,9.82,3.53,14.73h0c3.34,11.03,2.9,23.02,7.44,33.6,3.98,9.29,6.4,18.78,8.28,28.58,1.83,9.57,6.31,18.47,7.45,28.24.29,2.63.57,5.25.86,7.88-.12,4.48.93,8.63,3.41,12.39.14.31.29.6.46.89-.66,2.13.96,3.44,1.8,5.03h0s0,0,0,0c2.4,5.04,6.3,9.51,6.05,15.58-.09,1.22-.17,2.43-.26,3.65,0,0,0,.01,0,.02,1.04,4.59,2.66,9.05,2.96,13.8h0c-.04,2.02-.09,4.05-.13,6.07-.72,5.38.33,10.44,2.7,15.27h0,0c1.04,3.85.65,7.55-1.14,11.1h0c-.29.14-.5.36-.64.65h0c-1.7,2.03-1.79,4.53-2.01,6.99-.89,1.09-1.09,2.29-.58,3.6.02.04.06.07.08.11-1.07,1.22-1.16,2.7-1.06,4.22-.62,1.16-.15,2.14.51,3.09-.9,2.39-.06,4.71.32,7.04-.14,2.29.57,4.4,1.42,6.48h0c.21.56.42,1.12.63,1.68,0,0,0,0,0,0,.09,3.37.95,6.58,1.95,9.77h0c.79,3.54,1.57,7.08,2.36,10.62-.51,1.59-.17,3.11.32,4.63-.71,1.57-.09,3.09.17,4.62h0c.63,3.23,1.26,6.45,1.9,9.67,0,0,0,0,0,0,.08.78.16,1.55.23,2.33.3,2.86,1.47,5.39,3,7.78,0,0,0,0,0,0,.14.78.27,1.55.41,2.33,0,0,0,0,0,0,1.39,2.88-.77,6.79,2.61,9.1h0s0,0,0,0c2.75,4.01,3.02,8.76,3.93,13.31.05.33.15.64.29.94h0c-1.32,5.04-2.39,10.11-1.98,15.37h0,0c-.25,1.72-.5,3.43-.75,5.14-1.03,3.56-.03,7.12-.04,10.68h0c-.07,3.29-.13,6.59-.2,9.88.27,1.38.53,2.76.8,4.14,0,0,0,0,0,0-.17,1.7-.33,3.4-.5,5.1.22,1.84.44,3.69.65,5.53h0c-.92,2.4.33,4.66.45,6.99.31,1.36.62,2.72.93,4.09h0c.37,3.41.74,6.81,1.11,10.22-.01.76-.02,1.51-.03,2.27h0c-.16,2.49-.33,4.99-.49,7.48.14,3.85.28,7.71.43,11.56-.77,1.32.42,2.19.74,3.26-.75,1.53-1.92,2.25-3.65,1.91h0c-.95-.25-1.9-.5-2.84-.75h0c-3.5-1.98-7-3.96-10.51-5.94-1.79-1.94.68-4.89-1.6-6.71.17-.44.34-.87.51-1.31,1.64-.88,3.58-1.34,4.46-3.27h0c.18-.44.35-.89.53-1.33h0c.73-2.47.64-5,.55-7.53h0c-.08-.77-.16-1.55-.24-2.32-.05-.78-.09-1.56-.13-2.35-.08-.78-.16-1.56-.24-2.33h0c.34-3.23,1.74-6.36.87-9.7,0,0,0,0,0,0,.64-3.98,1.29-7.96,1.93-11.94,0,0,0,0,0,0,.34-2.6.69-5.2,1.04-7.79h0c.22-.96.44-1.93.67-2.89h0c.78-2.22,1.1-4.44-.02-6.65.82-4.4.49-8.78-.19-13.16,0,0,0,0,0,0-1.42-4.87-1.14-9.88-1.23-14.86,0,0,0-.01,0-.02.28-7.33-.99-14.54-1.72-21.79h0c-.06-1.54-.12-3.09-.18-4.63h0s0,0,0,0c-.24-1.05-.48-2.11-.71-3.16h0c-.33-2.17-.66-4.33-.99-6.5h0c.38-.85.23-1.63-.28-2.37h0c-.45-1.65-.91-3.29-1.36-4.94,0,0,0,0,0,0-.17-1.06-.33-2.12-.5-3.18-.71-4.75-.88-9.62-3.37-13.94.51-1.92-.46-3.43-1.36-4.96h0c-.72-3.15-1.22-6.36-2.89-9.21-.48-2.44-.95-4.87-1.43-7.31,0,0,0,0,0,0,.23-1.59-.66-2.84-1.26-4.17h0c-.21-3.3-1.19-6.35-2.91-9.17-1.01-3.34-2.02-6.69-3.03-10.03h0c.23-2.41-1.24-4.13-2.41-5.98,0,0,0,0,0,0,0,0,0,0,0,0-.45-.89-.89-1.78-1.34-2.67h0c-.91-5.71-5.2-9.8-7.18-15,0,0,0,0,0,0-.48-2.16-.95-4.31-1.43-6.47,0,0,0,0,0,0h0c-.88-2.39-.23-5.11-1.63-7.38,0,0,0,0,0,0,.62-1.62-.5-2.8-1.02-4.14h0c-.35-5.84-3-11.03-4.67-16.49-.49-1.66-.98-3.33-1.47-4.99h0c.27-1.89-.89-3.35-1.51-4.98.02-2.67-.59-5.17-2.06-7.44-.05-.78-.09-1.56-.14-2.34h0s0,0,0,0c-1.67-3.98-1.2-8.53-3.33-12.39-.22-1.08-.43-2.15-.65-3.23h0c-.6-4.2-1.42-8.34-3-12.3h0c-.19-2.65-.91-5.14-2.19-7.47-.36-.88-.71-1.76-1.07-2.64h0c-.63-4.67-2.74-8.77-4.93-12.84-.01-.36-.07-.69-.17-.97-.6-3.08-2.04-5.69-4.44-7.77-.11-.17-.27-.32-.49-.43-.33-1.32-.66-2.64-.99-3.97h0c-1.58-5.81-4.17-11.2-6.83-16.56-1.01-3.02-2.03-6.04-3.04-9.05-.25-.59-.5-1.18-.75-1.78h0c.34-1.64-.59-2.89-1.31-4.2-.03-.28-.11-.55-.24-.81h0c-1.14-6.75-3.35-13.16-6.3-19.32,0,0,0,0,0,0-.06-.31-.17-.6-.34-.86h0c-.45-4.76-3.95-8.13-5.62-12.33h0c-2.64-8.02-7.55-14.86-11.53-22.18-.32-.61-.65-1.23-.97-1.84-.65-1.23-1.29-2.47-1.94-3.7h0c-.34-.6-.68-1.2-1.02-1.8h0c-.51-.9-1.01-1.8-1.52-2.7h0c-1.33-2.43-2.66-4.87-3.99-7.3h0c-.34-3.67-2.86-6.34-4.35-9.48,0,0,0,0,0,0h0c-.93-3.05-1.86-6.11-2.78-9.16h0c-1.87-3.47-.99-7.8-3.49-11.07h0c-.17-2.57-1.51-4.67-2.76-6.81-.08-2.59-1.45-4.67-2.72-6.79-1.09-2.08-2.17-4.15-3.26-6.23h0c-1.23-5.27-4.47-9.56-6.98-14.21-1.91-4.88-3.82-9.76-5.73-14.65h0c-.39-3.22-1.23-6.3-2.82-9.15h0c-.82-2.36-1.05-5.42-4.27-5.64-2.11-.14-3.33,1.46-3.16,3.75h0c-.08.42-.15.84-.23,1.26h0c-.56,1.18-.9,2.38-.32,3.66h0c-.18.98-.36,1.96-.54,2.94-.86,1.19-.26,2.49-.25,3.74-.91,2.89-1.16,5.85-1,8.86-.3,2.31-1.56,4.64.18,6.9h0c-2.45,4.24-1.74,9.16-2.92,13.68-.22.92-.44,1.84-.66,2.76h0c-.41,2.21-.82,4.42-1.23,6.63h0c-.53,3.42-1.07,6.84-1.6,10.26h0c-.1,1.21-.2,2.41-.3,3.62-1.11,5.88-2.12,11.77-1.9,17.79h0c-.91,4.18-1.41,8.4-1.23,12.68h0c-.15,1.19-.3,2.38-.44,3.57h0c-.35,3.5-.69,7-1.04,10.5-.61,2.43-.93,4.89-.66,7.41-1.18,3.34-.8,6.85-1.13,10.28h0s0,0,0,0c-.19,2.81-.39,5.62-.58,8.43,0,0,0,0,0,0-1.02,2.88-1.3,5.83-.95,8.86-.05.46-.1.91-.16,1.37-1.34,3.3-.87,6.86-1.4,10.27-.36,2.97-.72,5.94-1.09,8.91h0s0,0,0,0c-.25,2.48-.49,4.97-.74,7.45h0c-.34,1.39-.67,2.77-1.01,4.16h0c-2.2,15-3.15,30.05-1.85,45.19h0c-.04.28,0,.55.11.81,0,0,0,0,0,0,.05,2.06.1,4.12.14,6.18h0c.07,3.83.13,7.65.2,11.48,0,0,0,0,0,0,.19,7.8,4.22,14.47,6.34,21.71h0c.27,2.15-.27,4.46,1.23,6.37.14,4.54.64,9.03,1.72,13.44,0,.28.06.55.18.8h0c.05,1.28.1,2.55.15,3.83.27,3.38.53,6.76.8,10.14.38,2.94.75,5.88,1.13,8.81,0,0,0,0,0,0-.26,2.28.49,4.36,1.31,6.42h0c.86,7.65.83,15.46,4.31,22.61.04,1.75.47,3.39,1.34,4.91h0c.88,4.58,3.49,8.5,4.94,12.86h0c.76,8.73,2.39,17.26,5.96,25.33-.66,2.23.85,4.03,1.5,5.87,1.59,4.51,3.73,8.83,3.47,13.8,0,0,0,0,0,0-.4.65-.79,1.3-1.19,1.94h0c-.61,1.12-1.22,2.25-1.83,3.37-1.01,1.93-2.84,3.57-2.2,6.1-.07.32,0,.6.21.86-1.63,3.22,1.12,6.62-.37,9.85-.03,5.12,1.33,10.19.53,15.33.06,1.05.12,2.1.18,3.16.85,8.98,2.29,17.94,1.08,27.01,0,1.47.06,2.93.97,4.19-.5,1.31.11,2.29.93,3.22.49,1.62.98,3.24,1.47,4.86.13.34.26.68.39,1.03-.24,1.5.31,2.81.98,4.09-.16,2.4,1.49,4.07,2.46,6.01h0c.86,2.27,1.72,4.53,2.58,6.8.91,2.55,1.83,5.09,2.74,7.64h0c1.05,3.1,2.1,6.21,3.15,9.31,1.16,4.04,1.78,8.26,4.01,11.95-.16,1.92.95,3.42,1.7,5.03.14,4.4,1.38,8.6,2.44,12.83.04.75.08,1.49.12,2.24-.24,2.28.15,4.47,1.04,6.57h0c.07,1.95.14,3.91.21,5.86l-.06.36.21.3c-.43,2.21.87,3.8,1.95,5.47-.17,5.22,2.72,9.29,5.1,13.56h0c-.15,1.99,1.05,3.47,1.9,5.09.05,2.62,1.09,4.86,2.69,6.88,1.9,7.12,4.12,14.1,8.84,19.96,1.75,1.79,3.51,3.58,5.26,5.37,1.18,1.08,2.11,2.49,3.76,2.97,1.85,1.35,3.23,3.44,5.75,3.78.88.63,1.77,1.25,2.65,1.88,1.55,1.25,2.86,2.86,4.96,3.25.66.53,1.32,1.07,1.98,1.6h0c1.33.72,2.65,1.44,3.97,2.16,3.12,4.22,7.69,6.77,11.6,10.09.61.47,1.22.95,1.84,1.42.65.41,1.31.83,1.96,1.24,3.46,1.9,6.36,5.08,10.82,4.67,1.36,1.07,2.5,2.55,4.52,2.31,0,0,0,0,0,0,1.46,2.54,4.02,2.07,6.32,2.34,1.24,1.95,3.28,2.43,5.32,2.92,1.27.17,2.53.33,3.8.5l.15.43.32.32c3.16,1.42,6.33,2.84,9.49,4.26h0c.34-.07.69-.15,1.03-.22h0c1.42,1.97,3.21,1.04,4.93.63h0c.79,1.35,2.25.99,3.43,1.35,2.94,1.22,5.21,3.4,7.7,5.27h0c6.05,7.57,12.43,14.97,10.93,25.76-.24,1.72.23,3.44,1.33,4.85,1.82,2.33,2.09,4.98,1.85,7.77-.45,2.66-.89,5.33-1.34,7.99-.2,1.73-.4,3.46-.6,5.19h0,0c.02,6.02-1.81,11.98-.6,18.04-.47,6.23-.94,12.46-1.41,18.69.76,3.34-1.78,6.45-.65,9.82h0c-.96,5.31-1.91,10.62-2.87,15.93-.14.47-.29.94-.43,1.4h0c-1.77,3.25-2.01,6.72-1.43,10.3h0c-.84,1.31-1.28,2.71-1,4.28.09,2.34.18,4.68.27,7.02-.74-.05-1.47-.11-2.21-.16,0,0,0,0,0,0-1.33-1.46-3.38-1.29-4.97-2.19-.13-.23-.29-.44-.48-.62,0,0,0,0,0,0-2.51-.99-5.03-1.98-7.54-2.97-1.3-.84-2.59-1.67-3.89-2.51,0,0,0,0,0,0-.85-.78-1.7-1.57-2.55-2.35-.32-.53-.63-1.06-.95-1.59,0,0,0,0,0,0-1.82-3.37-3.65-6.75-5.47-10.13-.57-1.68-1.13-3.37-1.7-5.05h0c-.81-2.02-1.89-3.83-3.88-4.91h0s0,0,0,0c-.7-1.18-1.39-2.36-2.09-3.53h0c-1.6-3.14-3.27-6.25-5.81-8.76,0,0-.01-.01-.02-.02-1.63-2.24-2.35-5.17-5.04-6.6-2.13-4.12-4.84-7.79-8.36-10.83,0,0,0,0,0,0-1.53-.93-2.64-2.2-3.31-3.86h0s0,0,0,0c.69-1.38-.09-2.35-.91-3.3h0c-.21-2.3,1.05-4.68-.39-6.91-.21-.6-.42-1.2-.63-1.79h0s0,0,0,0c-1.87-6.41-3.83-12.78-6.94-18.73h0c-.36-3.27-1.39-6.33-2.92-9.22h0c-2.22-3.91-4.43-7.81-6.65-11.72,0,0,0,0,0,0,0,0,0,0,0,0-.23-.59-.45-1.19-.68-1.78h0c-2.99-7.84-6.15-15.78-11.15-22.42-5.49-7.27-11.31-14.23-15.44-22.41-.61-1.77-.88-3.77-1.89-5.27-1.92-2.84-1.73-7.51-6.53-8-2.6-7.19-5.18-14.38-9.43-20.81,0,0,0,0,0,0h0c-2.75-4.91-4.8-10.26-8.88-14.35,0,0,0,0,0,0-.36-.48-.72-.96-1.09-1.44-2.48-3.77-4.97-7.53-7.45-11.3-.68-1.21-1.35-2.41-2.03-3.62-2.59-3.76-3.74-8.45-7.47-11.47-.35-.53-.7-1.07-1.05-1.6h0c-6.59-10.93-14.36-21.2-18.78-33.36-.24-.67-1.22-1.08-1.85-1.61-.67-1.18-1.35-2.35-2.02-3.53h0c-.86-1.95-.5-4.57-3.03-5.62,0,0,0,0,0,0-1.56-2.62-3.12-5.25-4.69-7.87h0c-2.08-3.29-4.37-6.42-7.31-9.02-.17-.3-.35-.6-.52-.89-1.22-1.76-1.79-4.03-3.9-5.12h0c-.37-.49-.74-.98-1.11-1.47h0c-1.11-1.41-2.22-2.83-3.33-4.24h0c-1.02-1.47-1.5-3.38-3.43-4.08h0c-.36-.56-.71-1.13-1.07-1.69h0c-1.03-1.82-2.05-3.63-3.08-5.45-.66-1.21-1.31-2.41-1.97-3.62-1.13-3.45-3.11-6.31-6.02-8.5-3.05-3.43-6.11-6.87-9.16-10.3-2.24-3.59-3.61-7.76-7.06-10.53-.54-.84-1.08-1.68-1.62-2.52h0s0,0,0,0c-5.55-8.17-13.37-14.47-18.65-22.86-2.95-7.07-5.86-14.16-8.88-21.2-1.53-3.56-2.7-7.37-6.01-9.86h0c-.37-.52-.74-1.04-1.11-1.56h0c-1.08-1.63-2.39-3-4.15-3.9-1.35-1.26-2.65-2.61-4.86-2.37-.78,1.9.48,3.22,1.24,4.67h0c2.03,5.9,4.05,11.79,6.08,17.69h0c-.12,3.79.44,7.48,1.38,11.14h0c-.5,4.27.8,8.4,1,12.62,0,0,0,0,0,0-.51,1.25.35,2.13.81,3.12,0,3.02.64,5.92,1.55,8.78h0s0,0,0,0c.03.35.14.67.32.97.37,1.34.73,2.68,1.1,4.02h0c-.06,3.1,1.89,5.35,3.31,7.83,3.11,8.98,6.22,17.97,9.34,26.95.36.88.72,1.76,1.08,2.65h0c2.56,8.11,5.11,16.22,7.67,24.33,1.55,7.54,3.1,15.07,4.64,22.61h0c.95,3.04.56,6.44,2.51,9.21,0,0,0,0,0,0-.73,2-.38,3.82.91,5.48-.73,1.22-.02,2.23.46,3.27h0c.11,4.07,2.02,7.65,3.09,11.46h0c.23.61.45,1.22.68,1.83.22.1.43.23.65.36-.22-.08-.43-.19-.65-.36.22,3.69,1.67,7.07,2.65,10.56h0c.21.56.42,1.12.63,1.68,0,0,0,0,0,0,.62,3.99,1.68,7.85,3.12,11.62.03.28.12.54.26.79,0,0,0,0,0,0-.23,1.99.37,3.7,1.73,5.16-.51,3.91,1.76,6.9,3.37,10.1,0,0,0,0,0,0,1.97,6.7,5.38,12.69,9.04,18.57h0c1.16,5.65,4.88,10.03,7.39,15.02.62,1.18,1.24,2.36,1.86,3.54h0c2.1,6.37,5.27,12.26,8.08,18.31,1.04,3.33,2.27,6.57,4.08,9.56.79,2.26,1.58,4.52,2.38,6.79,0,0,0,0,0,0h0c-2.33,1.19-4.26-.37-6.33-.94h0c-7.5-2.31-14.43-6.23-22.17-7.85,0,0,0,0,0,0h0c-1.26-.87-2.64-1.3-4.19-1.12-.77-.03-1.54-.06-2.31-.09h0c-3.44-1.54-7.01-2.47-10.8-2.37-.46-.12-.91-.24-1.37-.36,0,0,0,0,0,0-2.73-1.18-5.55-2.04-8.53-2.34,0,0,0,0,0,0-1.89-.58-3.79-1.17-5.68-1.75,0,0,0,0,0,0,0,0,0,0,0,0-5.35-3.11-11.43-4.45-17.03-6.95-1.45-.97-2.78-2.2-4.7-2.15-.8-1.18-1.92-1.73-3.34-1.69h0s0,0,0,0h0s-.02.05-.02.05c-.75-1.24-1.91-1.72-3.31-1.73h0c-2.73-2.4-6.07-3.78-9.2-5.5h0s0,0,0,0c-8.58-5.55-17.15-11.11-25.73-16.66h0c-2.82-2.74-6.19-4.64-9.7-6.33-3.93-1.37-7.87-2.74-11.8-4.11-.03-.06-.11-.08-.22-.1-2.59-1.3-5.32-2.08-8.21-2.29,0,0,0,0,0,0h0c-3.11.1-5.51-2.13-8.46-2.54-6.69-3.44-11.88-8.32-14.71-15.44-1.43-2.55-2.85-5.1-4.59-8.21,0,3.94.01,7.31.02,10.68-.58,1.66.53,2.84,1.18,4.16h0c-.58,1.25.12,2.23.7,3.23-.08,1.89.67,3.48,1.74,4.96l.17.48s.3.41.3.41h0c.48,2.45.97,4.91,1.45,7.36,0,0,0,0,0,0,.41,3.43.81,6.85,1.22,10.28,0,0,0,0,0,0,0,0,0,0,0,0,.93,4.11,1.97,8.19,4.11,11.89h0c.69,1.96,1.39,3.92,2.08,5.88h0c-.07,3.04,1.85,5.48,2.46,8.32.87,2.28,1.74,4.56,2.61,6.83.03.29.12.57.26.83h0c.63,4.69,3.73,8.24,5.69,12.31,0,0,0,0,0,0,5.24,11.37,10.49,22.74,15.73,34.11,0,0,0,0,0,0,0,0,0,0,0,0,3.21,5.75,6.41,11.5,9.62,17.26h0c6.05,11.46,13.2,21.99,24.54,28.97h0s0,0,0,0c.73.6,1.49.41,2.26.07h0c3.3,3.4,7.74,4.66,11.94,6.38h0c4.42,2.36,9.14,3.62,14.12,4.02h0c1.31.76,2.71,1.25,4.25,1.14h0c.94.28,1.88.56,2.82.83h0c2.07,1.74,4.95.5,7.1,1.93h0c5.46,2.8,11.49,2.83,17.37,3.58.86.52,1.75.84,2.77.53h0c.5.13,1,.25,1.5.38,0,0,0,0,0,0h0c9.1,2.84,18.8,3.38,27.65,7.19,1.61.67,3.22,1.34,4.83,2.01h0s0,0,0,0c.9.32,1.8.64,2.71.95h0c4.93,2.38,9.86,4.75,14.79,7.13h0c5.55,2.85,11.09,5.7,16.64,8.56,1.28,2.23,3.09,3.72,5.71,4.07h0c.44.67.93,1.28,1.85,1.27,0,0,0,0,0,0,6.29,4.22,12.91,7.81,20.09,10.3.83,1.17,1.98,1.7,3.4,1.69,0,0,0,0,0,0,2.22,2.69,5.52,3.34,8.53,4.54h0c.54.92,1.09,1.83,1.63,2.75h0c.2,2.24.39,4.48.59,6.72.31,2.87.97,5.62,2.86,7.93h0c4.15,3.74,3.72,9.56,6.34,14h0c-.12,1.62.7,2.9,1.52,4.18,1.8,5.3,4.02,10.41,7.15,15.09h0c.99,1.81,1.98,3.63,2.97,5.44,3.94,5.74,5.64,13.04,12,17.07,1.67,1.63,3.23,3.41,5.56,4.17h0c3.69,2.16,7.38,4.32,11.49,5.63.21.25.42.49.65.73h0c5.22,8.2,6.71,18.14,12.16,26.23,0,0,0,0,0,0-.87,5.03.86,9.64,2.34,14.29.55,3.85,2.32,7.64.54,11.6-.21,2.48-.41,4.96-.62,7.44h0c-1.11,1.4-2.24,2.78-2.35,4.68,0,0,0,0,0,0-1.99,2.41-4.08,4.75-5.15,7.77,0,0,0,0,0,0-2.25,1.87-3.38,4.41-4.22,7.12-1.32,3.21-2.4,6.48-2.86,9.94,0,0,0,0,0,0-1.35.86-2.14,2.13-2.64,3.62,0,0,0,0,0,0-1.61,1.49-2.79,3.23-3.09,5.46,0,0,0,0,0,0-1.51,1.36-2.71,2.89-2.86,5-.02.05-.04.11-.02.19h0s0,0,0,0c-1.46.93-2.32,2.27-2.72,3.93,0,0,0,0,0,0-4.63,5.47-7.73,11.88-11.14,18.1,0,0,0,0,0,0-.58,1.12-1.16,2.25-1.74,3.37,0,0,0,0,0,.01-3.71,3.66-5.31,8.63-8.1,12.87-.14.46-.27.92-.41,1.38-.91,1.28-1.33,2.69-1.16,4.26.34.61.67,1.22,1.01,1.83,1.21-.68,2.41-1.35,3.62-2.03.57-1.11,1.14-2.22,1.71-3.33,1.61-2.88,4.03-5.31,4.85-8.63h0c2.67-2.5,4.32-5.61,5.47-9.03,4.9-8.26,9.8-16.52,14.7-24.79,3.47-4.78,7.24-9.37,9.51-14.92h0c4.3-4.09,6.63-9.5,9.61-14.48.16-.26.2-.5.17-.71l3.21-5.65h0c.1-.17.2-.38.3-.65.69-1.82,1.73-3.51,2.62-5.26.88-1.48,2.29-2.72,2.12-4.68h0c3.96-5,7.19-10.36,8.46-16.72,1.54-2.83,2.8-5.77,3.35-8.97h0c.77-1.3,1.23-2.68,1.19-4.21h0c5.94.06,11.44-1.9,16.98-3.68h0s0,0,0,0c.89-.44,1.78-.87,2.67-1.31h0c2.1.42,3.6-.95,5.16-1.88,7.09-4.25,14.11-8.62,21.16-12.95.31-.08.62-.18.91-.3h0c1.25.5,2.21-.22,3.22-.74.72-.04,1.44-.08,2.16-.13.67.44,1.34.87,2.01,1.31,3.86,2.65,8.29,3.48,12.82,3.96.25.94.84,1.4,1.83,1.28h0c2.84.65,5.68,1.31,8.52,1.96.93.22,1.86.44,2.8.67.8.14,1.61.27,2.41.4.89.22,1.79.45,2.68.67.9.64,1.9.63,2.93.41,2.42.67,4.84,1.37,7.39.81,3.15.88,5.51-1.25,8.2-2.13,4.13-.56,7.55-2.37,10.1-5.72,1.17-.69,2.34-1.37,3.51-2.06h0c1.48-.2,2.67-.93,3.68-2,1.76-.65,3.44-1.4,4.02-3.44.58-.38,1.17-.76,1.75-1.14,2.91-.99,3.56-4.54,6.38-5.63,2.17-1.03,3.46-2.81,4.3-4.98.32-.15.63-.29.95-.44,2.51-1.11,4.1-3.14,5.48-5.4.5-.59,1-1.18,1.5-1.77.39-.09.57-.33.55-.73,1.31-.67,2.41-1.55,2.97-2.97,3.59-3.71,7.72-6.94,10.21-11.62,2.94-1.96,6.69-2.7,8.85-5.84h0s0,0,0,0c.81-.54,1.62-1.07,2.43-1.61,1.11-1.67,3.37-2.27,4.05-4.34h0c2.57-2.83,6.19-4.64,8.01-8.2,3.73-4.05,7.47-8.11,11.2-12.16.31-.09.54-.29.67-.59,1.73-1.02,2.91-2.51,3.8-4.27.64-.82,1.28-1.64,1.91-2.45.95-.52,1.97-.97,1.99-2.29.12-.31.09-.61-.08-.9h0c.54-.4,1.09-.81,1.63-1.21h0c.38-.01.64-.2.77-.56,2.26-1.92,4.52-3.84,6.78-5.76,0,0,0,0,0,0,2.49-1.19,4.28-3.24,6.29-5.03,2.83-2.26,5.6-4.57,7.57-7.67,1.02-.59,2.04-1.18,2.44-2.4.99-.58,2.12-1.03,2.27-2.4.28-.1.49-.29.61-.56,1.12-.47,2.17-1.01,2.35-2.39,1.61-1.73,3.13-3.52,3.92-5.8.36-.1.54-.34.53-.72,2.29-2.7,2.5-6.36,4.3-9.28,1.59-1.56,2.39-3.83,4.46-4.96,1.38-1.09,2.76-2.18,4.15-3.27h0s0,0,0,0c1.48-.89,2.97-1.78,4.45-2.67h0c.32-.09.61-.26.84-.5h0c1.07-.85,2.13-1.7,3.2-2.55,1.8.17,3.09-.52,3.73-2.26h0c.57-.36,1.14-.72,1.72-1.09.31-.15.63-.3.94-.46h0c.31-.13.61-.3.88-.51,0,0,0,0,0,0,1.21-.69,2.41-1.37,3.62-2.06.61-.33,1.21-.67,1.82-1,3.6-2.12,7.54-3.73,10.38-6.98h0c2.38-1.45,5.24-2.26,6.72-4.94,2.4-2.48,4.75-5.01,6.27-8.17h0c.68-.82,1.36-1.65,2.04-2.47h0c.17-.41.35-.83.52-1.24.96-1.05,1.93-2.09,2.89-3.14h0c.63-1.06,1.26-2.11,1.9-3.17.97-1.03,1.94-2.06,2.91-3.1h0c1.98-2.08,3.76-4.29,4.57-7.12h0c2.7-3,6.43-5.11,7.87-9.18.8-1.3,1.59-2.6,2.39-3.9,0,0,0,0,0,0,0,0,0,0,0,0,2.56-1.7,2.98-4.75,4.44-7.13,3.39-2.69,5.42-6.37,7.4-10.1,1.5-2.36,3.56-4.39,4.38-7.16h0c3.04-5.23,6.07-10.47,9.11-15.7,1.78-1.32,3.43-2.75,4.37-4.83h0c2.55-3.34,5.95-6.05,7.41-10.17,0,0,0,0,0,0,.9-2.53,1.8-5.07,2.69-7.6,0,0,.02-.06.02-.06,0,0,0,0,0,0,2.07-3.95,3.09-8.21,3.79-12.58,1.69-3.6,1.53-7.18-.17-10.73h0c.09-3-.31-5.92-1.3-8.76-.17-1.82-.35-3.64-.52-5.46,0,0,0,0,0,0,.12-4.82.24-9.64.36-14.46,0-.48-.01-.96-.02-1.44.2-1.21.39-2.42.59-3.64,2.91-2.74,5.52-5.81,9.29-8.08-4.28-2.82-7.95-1.94-11.62-.15-.61.31-1.21.62-1.82.93-4.35,5.34-8.16,11-10.41,17.59h0c-1.75,4.69-3.14,9.44-2.54,14.55-.02.77-.04,1.53-.06,2.3h0c-.35,1.41-.71,2.82-1.06,4.23-.9,1.25-1.22,2.69-1.33,4.19h0c-1.41,2.39-2.81,4.78-4.22,7.17-2.7,1.98-4.69,4.6-6.58,7.31h0c-.59.38-1.17.76-1.76,1.14h0c-1.94,1.5-3.87,3-5.81,4.5-.91.47-1.81.94-2.72,1.41h0c-1.22.66-2.45,1.32-3.67,1.98-2.45,1.36-5.51,1.28-7.7,3.24-1.2.62-2.4,1.24-3.6,1.86h0c-2.1-.55-3.45,1.04-5.09,1.79h0s0,0,0,0c-1.96-.84-3.24.86-4.86,1.31,0,0,0,0,0,0-4.77,1.47-9.54,2.95-14.31,4.42-2.91.15-5.6,1.11-8.26,2.18,0,0,0,0,0,0-1.64-.36-2.82.78-4.2,1.28h0c-5.91,1.18-11.62,2.94-16.91,5.9,0,0,0,0,0,0-3.97,1.01-6.72,3.86-9.64,6.44h0c-2.76,2.17-5.71,4.14-7.88,6.98h0c-1.83,1.12-3.96,1.87-5.01,3.97-.87.51-1.74,1.02-2.6,1.54-.3.17-.6.33-.91.5-.6.35-1.2.69-1.8,1.04-3.83,1.77-7,4.52-10.36,6.99-2.41,1.36-4.81,2.73-7.22,4.09h0s0,0,0,0c-.6.34-1.21.67-1.81,1.01h0c-.31.16-.61.32-.92.47h0c-3.17.56-6.02,1.88-8.65,3.7h0c-1.22.64-2.44,1.29-3.67,1.94h0c-5.53,1.27-10.09,4.58-15,7.16h0c-.59.37-1.17.75-1.76,1.12h0c-.33.1-.64.25-.92.44-2.49-.56-4.01,1.38-5.91,2.32h0s0,0,0,0c-.89.51-1.78,1.01-2.67,1.52-1.51.7-3.03,1.39-4.54,2.09,0,0,0,0,0,0-7.16,2.94-14.31,5.87-21.47,8.81h0c-1.19.68-2.38,1.35-3.57,2.03h0c-2.52,1.96-5.39,3.51-7.28,6.2h0c-3.4,1.97-6.24,4.63-9.05,7.32h0c-.54.41-1.09.82-1.63,1.22,0,0,0,0,0,0-3,1.69-6.22,3.08-8.95,5.13-4.76,3.57-11.01,4.67-15.09,9.3h0c-.31.15-.59.34-.84.57-1.2.68-2.41,1.36-3.61,2.04-.9.53-1.79,1.06-2.69,1.59h0s0,0,0,0c-1.96,1.45-3.92,2.91-5.89,4.36h0s0,0,0,0c-4.87,2.69-9.34,5.95-13.62,9.48-.7.32-1.36.69-1.75,1.44-1.49,1.61-2.98,3.23-4.47,4.84h0c-.26.18-.52.37-.77.57h0s0,0,0,0c-9.3-3.67-12.46-2.59-19.28,5.98-1.01,1.44-2.18,2.81-2.18,4.72h0c-.22.18-.42.38-.61.6,0,0,0,0,0,0-.76.74-1.52,1.48-2.28,2.23,0,0,0,0,0,0-.18-1-.36-2.01-.54-3.01,0,0,0,0,0,0,.55-4.65,1.1-9.31,1.65-13.96,1.62-3.46,1.56-7.26,2.23-10.91h0s.03,0,.03,0h0c1.81-1.52,1.34-3.29.56-5.09-.15-3.11-.31-6.22-.46-9.33h0c-.02-.78-.03-1.55-.05-2.33.1-4.73.63-9.41,1.61-14.04,0,0,0,0,0,0h0c.84-1.98.29-4,.21-6.01,0-1.11.1-2.25-.68-3.2h0s0,0,0,0c.05-2.8.11-5.6.17-8.4,1.14-1.6.8-3.38.67-5.15h0s0,0,0,0c.1-1.25.19-2.5.29-3.75h0c1.86-8.77,2.09-17.73,2.96-26.61h0s0,0,0,0c.24-1.7.49-3.39.73-5.09.88-.49,1.76-.98,2.63-1.47h0c2.95-.44,5.9-.89,8.85-1.33,2,0,4.01.02,6.01.03h0c2.98.15,5.8,1.64,8.87,1.05,2.38,1.2,4.72,2.88,7.41.67.17,4.15,3,4.66,6.26,4.58h0c3.95-.42,7.76-1.41,11.52-2.66h0c2.67.24,4.88-1.35,7.36-1.87,0,0,0,0,0,0,0,0,0,0,0,0,3.41-.23,6.82-.46,10.22-.69,0,0,0,0,0,0,3.43.52,6.86,1.04,10.29,1.55,3.39,1.69,7.07,1.92,10.75,2.11.93.23,1.87.45,2.8.68h0c3.21,1.43,6.46.5,9.71.19,0,0,0,0,0,0,0,0,0,0,0,0,.09,0,.14-.01.18-.03,1.33-.26,2.66-.52,4-.78h0c3.28-.3,6.54-.65,9.65-1.82h0c3.97-.37,7.85-1.12,11.49-2.82,1.66.53,2.84-.6,4.17-1.21h0c.31-.05.59-.17.84-.37,2.43.35,4.07-1.35,6-2.31.31-.04.59-.15.86-.32,0,0,0,0,0,0,2.72.09,4.65-1.69,6.81-2.91,2.75-1.47,5.5-2.94,8.25-4.4h0c.31-.09.6-.24.86-.44,2.81.26,4.62-1.81,6.83-2.94,1.49-.82,2.99-1.64,4.48-2.45,0,0,0,0,0,0h0c.91-.51,1.82-1.03,2.72-1.54,1.21-.65,2.41-1.3,3.62-1.94h0c.63-.34,1.27-.67,1.9-1.01,6.19-3.16,12.42-6.25,17.57-11.05h0c1.94-1.5,3.88-3.01,5.82-4.51h0c3.09-2.31,6.62-4.05,9.07-7.18,0,0,0,0,0,0,1.93-1.54,4.73-1.96,5.85-4.54h0c.57-.34,1.14-.69,1.71-1.03,2.33-.97,4.06-2.71,5.8-4.45h0c1.67-.79,3.16-1.79,4.05-3.48.41-.64.82-1.29,1.24-1.93h0c2.07-.79,3.82-1.98,4.97-3.92h0c2.91-2.24,5.82-4.48,7.72-7.73h0c1.13-.84,2.7-1.23,2.99-2.93h0s0,0,0,0h0c1.14-.87,2.82-1.16,3.12-2.93h0c3.82-3.76,7.63-7.53,11.45-11.29-.32-.12-.55-.26-.71-.41.23.15.46.29.71.41,2.47-2.09,4.94-4.17,7.4-6.26,0,0,0,0,0,0,.51-.38,1.02-.75,1.54-1.13,1.62-.89,3.47-1.47,4.32-3.35,0,0,0,0,0,0,2.16-1.66,4.32-3.33,6.49-4.99,1.51-.94,3.41-1.37,4.26-3.19h0c2.94-2.41,6.82-3.53,9.26-6.64,4.09-2.73,8.3-5.31,11.73-8.91h0c4.36-2.33,7.66-6.02,11.52-9.01h0c1.35-.69,2.77-1.29,3.35-2.87,0,0,0,0,0,0,1.78-1.09,3.7-2,4.7-4.01,2.79-1.86,4.99-4.28,6.75-7.12.5-.46,1.01-.91,1.51-1.37.21-.38.42-.77.63-1.15h0c2.9-1.83,4.78-4.6,6.73-7.31h0c.43-.63.85-1.25,1.28-1.88,0,0,0,0,0,0,2.37-2.89,4.75-5.79,7.12-8.68,4.19-4.41,8.38-8.82,12.58-13.24h0c3.23-2.3,6.23-4.87,8.62-8.07-.07-.12-.14-.24-.21-.36.02,0,.04,0,.06,0,0,0,0,0,0,0h0l.15.36c.53-.44,1.06-.87,1.58-1.31h0c1.78-1.77,3.55-3.53,5.33-5.3h0s0,0,0,0c1.07-.97,2.14-1.95,3.2-2.92,4.4-5.18,10.35-8.14,16.11-11.39,2.78-1.57,5.98-2.54,7.99-5.28,0,0,0,0,0,0,1.9-.79,3.79-1.57,5.69-2.36,2.12-.43,4.24-.86,6.36-1.28h0c5.64-.83,11.3-1.56,16.48-4.18,3.85.2,5.86-2.92,8.49-4.83,1.87-1.36.8-2.54-.83-3.33ZM553.41,424.16s0,.03,0,.04c-.02-.02-.04-.04-.06-.05.02,0,.04,0,.06.01ZM543.54,461.83s0,0,.01,0c0,.01.01.02.02.03-.03,0-.04-.02-.07-.02.01,0,.03,0,.04-.01ZM513.4,544.09s.05.02.07.02c0,.01,0,.02,0,.03-.04-.02-.07-.03-.11-.05.02,0,.03,0,.04-.01ZM507.79,569.68s.03.02.05.03c-.02.05-.04.1-.07.15-.02.05-.03.07-.05.1.02-.09.04-.19.07-.28ZM506.72,488.89c-.04-.17-.07-.36-.08-.57.22.13.29.3.08.57ZM494.01,515.69s-.02.08-.03.13c-.04,0-.07-.02-.11-.02.04-.04.09-.07.13-.1ZM477.6,617.73c-.1.05-.21.11-.32.19-.1-.26-.2-.52-.29-.79.22.22.42.42.6.61ZM448.56,587.57c.17.69.14,1.26-.41,1.73.2-.59.34-1.17.41-1.73ZM436.54,665.33c.03-.08.04-.16.06-.24.06.05.12.11.19.16-.08.15-.19.31-.31.46,0,0-.01-.01-.02-.02.03-.12.05-.24.08-.36ZM435.62,661.84s0,.09,0,.14c-.11.03-.09-.05,0-.14ZM425.07,621.68c.04.14.09.25.14.38-.1-.02-.19-.03-.28-.05.05-.11.09-.22.15-.34ZM419.14,691.96c0,.07,0,.13,0,.2-.12-.12-.22-.24-.35-.36.12.05.23.11.35.16ZM400.66,649.82c-.1.03-.2.07-.31.08-.02-.03-.03-.07-.04-.11.12.01.23.02.35.03ZM392.51,659.34h0,0c0,.07.01.14.02.22-.07-.04-.14-.07-.21-.11.06-.04.13-.07.19-.11ZM387.96,670.19s-.07.03-.1.04c0,0,0,0,0,0h0s-.03-.06-.05-.09c.05.01.1.03.15.05ZM384,733.21s-.08.04-.13.06c0-.04-.01-.08-.02-.12.05.02.09.04.14.06ZM382.78,669.54s.04,0,.06,0c-.01.03-.03.05-.04.09-.01-.02-.02-.03-.04-.05,0-.01.01-.02.02-.03ZM377.51,677.18s.02.02.02.02c-.01,0-.02,0-.04.01,0-.01,0-.02.01-.04ZM373.29,681.96c-.02.17-.04.34-.06.51-.16-.15-.3-.28-.49-.46.19,0,.37-.02.55-.06ZM364.68,668.86s.02.04.03.06c-.03.08-.06.16-.1.24.03-.1.04-.2.07-.3ZM354.92,738.35c.22.05.44.1.64.15-.1.15-.17.3-.23.45-.17-.14-.35-.28-.53-.42.04-.06.08-.13.11-.19ZM340.39,652.86c.05.15.08.3.15.46-.24.02-.43,0-.6-.02.15-.13.3-.28.45-.43ZM323.94,645.29c.03.06.07.12.1.18-.04.02-.07.03-.11.05,0-.08,0-.14.01-.23ZM248.95,759.81s.09.06.09.06c0,0,0,0,.01,0,0,0,0,0,0,.01,0,0-.01,0-.02,0-.04-.01-.09-.03-.13-.04.01,0,.02-.01.03-.02ZM244.47,748.99s0,.03,0,.04c-.05,0-.09,0-.13.02.05-.02.08-.04.13-.05ZM405.87,110.91s.05.06.08.08c.04.13.07.26.1.38-.04.03-.08.08-.11.15-.33.61-.19-.79-.07-.6ZM405.74,115.41s-.02.08-.04.12c0,0,0,0,0,0,0-.06,0-.11,0-.17.02.01.03.03.05.04ZM401.37,92.94h0s0,.01,0,.01c0,0,0,0,0-.01ZM401.06,175.22s-.01,0-.02,0c0,0,0,0,0,0,0,0,0,0-.01,0,0,0,0,0,0,0,0,0,0-.01-.01-.02.01,0,.02,0,.03,0ZM399.34,208.3h0s0,0,0,0c0,0,0,0,0,0,0,0,0,0,0,0h0s0,0,0,0c0,0,0,0,0,0h0s0,0,0,0c0,0,0,0,0,0,0,0,0,0,0-.01.01,0,.02,0,.03.01,0,0,0,0-.01,0h0ZM399.22,81.22c-.03-.21-.08-.41-.13-.6.29.03.43.17.13.6ZM393.45,159.51s-.05,0-.07,0c0-.06-.02-.12-.03-.18.04.06.07.12.1.19ZM388.89,123.75s.02,0,.03-.01c0,.03,0,.05,0,.08,0-.02-.02-.04-.02-.06-.01.16,0,.3,0,.45,0,.01,0,.02,0,.04,0,.01,0,.02,0,.04-.02-.19-.03-.38-.03-.57,0,.02.02.03.03.05ZM387.85,144.8s-.07-.02-.11-.03c0,0,0-.02,0-.02.04.02.08.04.12.05ZM383.06,278.36c.13.34.28.61-.44.54.15-.18.29-.36.44-.54ZM383.36,306.52c-.05.11-.07.25-.05.44-.27-.22-.57-.45-.92-.67.35.08.67.16.98.23ZM382.18,244.08c-.05.14-.07.28-.05.34.16.56.02.32-.21-.14.09-.06.18-.13.27-.2ZM381.41,297.13c.29.13.49.33.67.56-.28.07-.55.15-.76.24.02-.26.05-.52.1-.79ZM379.28,144.62s0,0-.01,0c-.02-.01-.05-.02-.07-.03.03,0,.05.02.08.03ZM375.49,265.58s.01.05.02.07h0s-.04-.03-.06-.05c.01,0,.03-.02.04-.03ZM374.79,202.67c.05.08.09.16.14.25-.17-.03-.35-.06-.52-.11.12-.05.26-.1.39-.14ZM373.16,224.36c-.12.1-.26.2-.42.29-.02-.08-.04-.15-.06-.23h0s0,0,0,0h0s0,0,0,0c.17-.01.33-.03.49-.05ZM369.87,412.78s-.02-.04-.03-.06h-.02s0,0,0,0h.01s.04.01.07.01c-.01.02-.02.04-.03.06ZM369.78,191.59s.05.08.07.13c-.09,0-.13-.03-.07-.13ZM367.42,380.84c-.07-.16-.14-.29-.22-.42.04,0,.07.02.11.02.03.13.08.26.11.4ZM367.3,130.47c-.15.15-.35.31-.62.47.09-.37.31-.5.62-.47ZM366.41,385.01s-.1.05-.14.07c-.01-.03-.03-.05-.04-.08.07,0,.12,0,.19,0ZM363.19,419.99h0s0,0,.01,0c0,0,0,0,0,0,0,0-.01,0-.02,0,0,0,0,0,0,0ZM363.12,309.34s0,0,0,0c0,0,0,0,0,0,0,0,0,0,.01,0ZM362.26,180.26s.06.02.09.02c0,.05,0,.09-.01.13-.03-.05-.04-.1-.08-.16h0ZM361.63,185.42s-.05-.04-.09-.05c0,0,0-.01-.01-.02.04.02.07.04.1.07ZM359.22,404.38s0,0,0,0h0s-.03-.06-.05-.09c.06,0,.12,0,.18,0-.05.04-.09.05-.13.1ZM359.77,386.21c.16.05.33.08.51.07-.02.03-.03.04-.05.06-.15-.04-.3-.07-.45-.1.08.07.15.16.21.26-.1-.01-.19-.1-.28-.19.02-.02.03-.05.05-.07,0,0,0-.01,0-.02ZM359.38,142.51c-.06.09-.13.17-.19.26-.02-.06-.04-.13-.05-.19.08-.02.16-.05.24-.07ZM357.78,401.66s-.03.02-.04.03c0-.01-.01-.02-.02-.03.02,0,.04,0,.06,0ZM357.68,207.65c-.04.09-.06.18-.11.27l-.04-.07c.06-.07.09-.13.15-.2ZM355.8,330.19s0,0-.01,0c0,0,.01,0,.02,0,.01.01.02.02.03.03.01,0,.02,0,.03,0,.44.13.81.31,1.13.54-.35-.16-.72-.33-1.14-.52-.05-.02-.09-.02-.14-.03.01,0,.03-.02.04-.02-.02-.02-.03-.05-.05-.07.03.02.05.04.08.07ZM353.45,330.22s0,.06,0,.08c0,0-.01,0-.02.01,0-.03,0-.07.02-.09ZM347.62,484.03s0,.05,0,.07c-.08-.07-.14-.14-.2-.22.07.06.13.1.2.15ZM345.4,445.41s-.03.02-.05.02c-.03-.06-.06-.1-.09-.15.05.04.09.08.14.12ZM343.85,455.82s.08-.04.12-.07h0c.02.13.07.23.11.35-.08-.09-.15-.19-.23-.28ZM344,423.6s-.05.02-.08.03c-.03,0-.05-.01-.08-.02-.02-.04-.04-.09-.05-.14.07.04.14.09.21.12ZM343.6,178.81s.01.02.02.03c-.13.02-.25.08-.35.18.05-.18.14-.27.33-.21ZM342.4,228s-.07-.07-.05-.02c-.01-.04-.03-.07-.04-.11.03.04.06.08.09.12ZM341.83,179.85s0,0,0,0c0,0,0,0,0,0h0ZM340.14,292.21s.03.04.05.06c-.02,0-.03-.01-.06-.01,0-.02,0-.03,0-.05ZM340.17,420.97s-.05.04-.08.06c-.04-.02-.07-.04-.11-.06,0,0,0,0,0,0,.07,0,.13,0,.19,0ZM338.63,310s-.03.05-.04.08h0s0,0,0,0c-.02-.03-.03-.06-.05-.09.03,0,.06,0,.1,0ZM336.56,357.56s-.04.01-.06.01c0-.02.02-.03.03-.05v.03s.02,0,.02,0c0,0-.01-.01-.02-.02,0-.04.01-.08.02-.13.04.04.06.08.1.11-.03.01-.06.02-.1.03,0,0,0,0,.01,0ZM336.6,227.93s0,0,0,0c0,0,0,0,0,0,0,.1.01.18.01.27-.04-.05-.08-.11-.12-.16.03-.04.07-.08.1-.11ZM335.63,453.22s-.07.08-.12.11c0,0,0,0-.01,0,0,0-.01,0-.02,0-.02-.04-.04-.07-.07-.11.07,0,.14,0,.21.01ZM335.26,191.75s.07,0,.11,0c-.06.03-.09.06-.15.09,0-.03.03-.06.03-.09ZM335.19,516.54c-.07,0-.13,0-.2.01.04-.03.09-.08.13-.11.03.03.04.07.07.1ZM334.97,436.3s.08.08.13.12c-.06.03-.12.06-.18.11.02-.07.03-.15.05-.23ZM334.08,306.72c.09.1.17.21.28.31-.14-.06-.25-.13-.39-.2.04-.04.08-.07.11-.12ZM333.63,373.49s0,0,0,0c0,0,0,0,0,.01l.02-.02s0,.07-.01.11c0-.03,0-.05,0-.08,0,0,0,0-.01.01,0,0,0-.02.01-.03ZM332.74,274.08s0,0,0,0h0s0,0,0,0ZM330.4,268.18s-.02.03-.02.04c-.04-.09-.07-.18-.13-.28.06.08.1.16.15.23ZM328.88,382s-.05.04-.07.06c-.02-.04-.04-.08-.05-.12.04.02.08.05.13.07ZM327.2,355.62s.02.04.03.06c-.02,0-.04,0-.07,0,.01-.02.02-.04.04-.06ZM326.65,454.46s0,.04,0,.06c-.02,0-.03-.01-.04-.02,0-.02.03-.03.04-.04ZM325.1,479.37s.02-.01.03-.02c0,.03,0,.05,0,.08,0-.02-.01-.03-.02-.05,0,0,0,0,0-.01ZM323.79,472.87s.05.04.08.06c0,0,0,0,0,0,0,0,0,0,0,0-.06.03-.11.05-.17.08.03-.05.06-.09.09-.14ZM322.88,443.72s.07.02.11.03c0,0,0,0,0,.01-.04-.01-.09-.02-.13-.04,0,0,.01,0,.02,0ZM321.98,263.39s0,.02,0,.03c0,.01,0,.02-.01.03,0,0,0,0-.01,0,0-.02,0-.04.01-.06ZM321.54,243.49h0s.02.03.02.05c-.03.01-.05.03-.07.04.02-.03.03-.06.05-.09ZM320.3,566.46s-.02,0-.02,0c-.34-.47-.46-.93-.44-1.4.2.41.36.87.46,1.41ZM319.15,441.11s0,0,0,0c0,0,0,0,0,0,0,0,0,0,0,0ZM316.19,273.04c.05.15.08.3.11.45-.08-.06-.15-.1-.23-.15.05-.1.08-.2.12-.3ZM315.62,282.23c.16.42.32.84.48,1.26-.71-.14-.75-.6-.48-1.26ZM314.83,288.87h0s.04.06.06.08c-.02,0-.04,0-.06-.01,0-.03,0-.05,0-.07ZM313.28,275.45s0,.01-.01.02h0s-.02-.02-.04-.03c.02,0,.03,0,.05.01ZM313.11,281.51s-.01,0-.02.01h0s0,0,0,0h0s0,0,0,0c0,0,0,0,0,0,0,0,0,0,0,0,0-.01,0-.02,0-.03,0,0,.02.01.03.02ZM309.67,374.06c-.02.05-.05.08-.07.13-.01-.05-.04-.09-.05-.15.04,0,.07.01.12.02ZM308.95,271.94s.02-.02.03-.02c0,.02,0,.04-.01.07,0,0-.02-.01-.02-.02,0,0,0-.02,0-.02ZM308.68,422.12c-.06,0-.13,0-.2,0,0-.03,0-.06-.01-.1.07.04.14.07.21.1ZM308.04,417.29s.01.08.02.12c-.03.01-.06.03-.09.04,0,0,0,0,0,0,0,0,0,0,0,0,.02-.05.05-.1.07-.16ZM307.34,473.48s-.02.04-.02.07c-.29-.11-.58-.22-.87-.33.31.03.61.11.89.26ZM305.63,580.54s.02.07.03.1c-.13.06-.24.13-.36.2.1-.1.22-.2.33-.3ZM303.52,489.3s-.1.09-.15.14c-.04-.07-.08-.13-.12-.21.1.02.17.05.26.07ZM303.15,357.26s0,0,0,0c0,0,0,0,0,0,0,0,0,0,0,0,.02,0,.03-.02.04-.02,0,.03-.01.07-.02.1,0-.02-.02-.05-.03-.07h0ZM301.32,358.32s.04,0,.06.01c.01.02.02.03.03.05-.03,0-.07-.02-.1-.03,0,0,0-.02,0-.03ZM300.61,472.98c-.09-.2-.26-.37-.24-.61.11.2.23.37.35.52-.04.03-.08.06-.12.09ZM300.29,310.96s.09,0,.13.01c-.07.08-.15.16-.2.24-.04-.02-.07-.05-.1-.07.06-.06.11-.13.17-.18ZM299.83,414.92s-.04.08-.05.12h0s0-.08,0-.12c.02,0,.03,0,.05,0ZM298.39,302.32c-.17.28-.31.62-.45.99-.12-.5-.24-.99-.31-1.46.32.09.56.27.76.47ZM297.51,470.86c-.05.42-.09.84-.13,1.26,0,0-.02,0-.02,0-.04-.44.02-.86.16-1.26ZM292.34,573.81s-.02,0-.04,0c-.02,0-.03-.02-.05-.02.03,0,.06,0,.09,0,0,0,0,.02,0,.02ZM292.88,555.67s.03.06.04.1c-.31.2-.62.37-.89.49.16-.3.42-.53.85-.59ZM290.74,386.08c-.09.17-.19.34-.28.51,0-.04,0-.07,0-.11.09-.15.19-.28.29-.39ZM289.76,418.2s0,0,0,0c0,.03-.01.07-.02.1,0,0,0-.02-.01-.02,0-.03.02-.06.03-.09ZM286.73,364.06c.08.09.15.2.22.31-.07.02-.16.02-.25.02,0-.11.01-.22.02-.32ZM286.56,407.6c.13.1.25.22.37.34-.08-.06-.17-.12-.27-.19-.03-.03-.07-.06-.1-.09,0-.02,0-.04,0-.06ZM282.54,335.59s.02,0,.03,0c-.02.08-.05.17-.07.25,0-.09.01-.18.04-.26ZM280.27,454.46s.03.01.04.02c0,0-.01.01-.02.02v.02s-.01.05-.02.08c-.06-.04-.12-.08-.19-.12.07.01.13.03.21.04v-.02s-.01-.02-.02-.04ZM275.59,473.76s0,0,0,0c0,0,0,0,0,0-.01-.02-.02-.04-.03-.06.03,0,.05.02.08.03-.02.01-.03.03-.04.04ZM276.86,380.39c.28.34.57.56.91.67-.65.37-1.39.52-2.32.18.6-.3,1.04-.58,1.41-.85ZM272.22,391.2s.02.05.03.07c-.02,0-.03,0-.05-.01,0-.02.02-.04.02-.06ZM269.69,613.79s.02-.02.04-.04c-.01.04-.03.08-.04.12,0-.03,0-.06,0-.09ZM269.07,540.45h0s0,0,0,0c0,0,0,0,0,0,0,0,0,0,0,0ZM267.88,437.48h0s0,0,0,0c0,0,0,0,0,0ZM258.06,506.18s0,.02,0,.02c-.03-.02-.06-.04-.09-.05.03,0,.06.02.1.03ZM257.13,380.91s-.07.1-.1.15c-.01,0-.02,0-.03,0,.03-.07.09-.09.13-.14ZM254.57,566.32c-.15.18-.31.36-.49.51,0,0,0,0,0,0,0,0,0-.02-.01-.02,0,0,.01.01.02.02l-.05-.1h0s0,0,0,0c0,0-.01.01-.02.02-.03-.04-.07-.08-.1-.11.24-.04.46-.15.65-.33,0,0,0,0,0,0ZM254.14,473.72s.05.07.09.11h0c-.07,0-.12-.02-.19-.03.03-.03.07-.05.1-.08ZM253.94,526.28s-.03.04-.05.07c-.02-.03-.04-.05-.06-.08.03,0,.07,0,.1,0ZM251.5,553.84s-.02.02-.04.03c0,0-.01,0-.02-.02h0s.04-.01.06-.02ZM250.7,471.67s0,.02.01.03c-.02-.01-.03-.03-.06-.04.02,0,.03,0,.04,0ZM250.46,479.6s-.05.06-.08.09c-.02-.04-.04-.08-.07-.12.05.01.09.01.14.02ZM250.32,479.58s0,0,0,0h0s0,0,0,0ZM244.22,489.91c.02.06.06.11.08.17h0c-.14.02-.25.02-.38.03.1-.06.2-.13.31-.2ZM243.67,465.55c-.32.16-.66.33-.95.44-.02-.02-.03-.05-.04-.07.42-.22.77-.36.99-.38ZM240.7,424.24h0s0,0,0,0c0,.03-.02.06-.03.09-.06,0-.12,0-.18,0,.07-.03.13-.05.2-.09ZM241.22,473.96s0,0,0,0c-.27.04-.52.05-.73.01.21-.06.44-.08.73-.02ZM235.34,469.83c.04.07.08.14.13.21-.14,0-.26,0-.38.02.07-.08.16-.16.26-.23ZM232.2,619.34s0,.01,0,.02l.09.02s0,.01,0,.02c-.03-.01-.06-.03-.08-.04,0,0-.01,0-.02,0,0,0,0-.02.01-.02ZM230.87,599.5c.07.04.13.08.2.12-.08,0-.17,0-.25,0,.02-.04.04-.08.05-.13ZM228.44,608.38h0s0,0,0,0c.03.05.06.1.08.15-.06,0-.13.02-.19.02.03-.06.07-.11.1-.17ZM226.62,506.85s.04-.02.07-.03c-.08.12-.13.24-.17.36,0,0,0,0,0,0,.05-.11.07-.22.1-.32ZM226.41,507.07s.07.06.1.1c-.04.01-.07.02-.11.03,0-.04,0-.09,0-.13ZM224.02,602.51s0,.03,0,.04c0,0-.01,0-.02,0,0-.01.02-.02.02-.04ZM223.97,602.51s.02.02.02.03c-.02,0-.03.02-.05.03,0-.02.02-.04.03-.06ZM222.92,602.76c.06.09.12.18.17.29h0,0s0,0,0,0c-.09.04-.19.05-.29.07.02-.11.06-.22.12-.35ZM221.51,549.24s0,.01,0,.02c0,0,0,0-.01,0v-.02ZM221.36,495.79s0,0-.01,0h0s0-.01.01,0ZM221.33,495.79s0,0,.01,0c0,0,0,0,0,0,0,0,0,0,0,0,0,0,0,.02-.01.03-.01,0-.02,0-.03,0,.01-.01.02-.02.04-.03,0,0,0,0,0,0ZM220.87,635.16s.02.02.02.03c0,.01-.01.02-.02.03v.02s0,0,0,0c0,0,0-.01,0-.02,0-.02,0-.04,0-.06ZM216.63,494.27c.07.17.12.32.19.5-.12-.1-.23-.16-.34-.24.06-.08.1-.17.15-.26ZM209.82,638.24c-.29.29-.68.45-1.33.32,0,0,0,0,0,0,.45-.27.89-.35,1.33-.32ZM206.88,693.02s0,0,0,0c-.17.02-.32.08-.47.14.11-.09.26-.15.47-.14ZM240.43,227.91c-.19-.36-.34-.65-.32-.66.13-.08.22-.15.33-.23,0,.3-.02.6-.02.89ZM239.91,210.27c.1-.03.2-.06.3-.09-.12.15-.26.29-.42.41.03-.11.08-.22.12-.32ZM239.58,251.7c-.04.07-.08.13-.12.2-.03-.05-.06-.11-.1-.16.08-.02.14-.02.22-.04ZM235.68,194.63c-.16-.24-.36-.46-.53-.69-.02-.05-.03-.1-.05-.16.18.29.37.58.58.85ZM229.23,186.88s.02.01.04.02c-.09,0-.17-.01-.27-.01,0,0-.01-.01-.02-.02.09,0,.17.02.26.03,0,0,0-.01,0-.02ZM225.87,163.8s-.01,0-.02.01c0,0,0,0-.01,0,0-.02,0-.03,0-.04.01.01.02.02.03.04ZM225.2,78.98c-.33-.17-.65-.35-.97-.53.37-.21.71-.12.97.53ZM225.46,342.82c-.6-.35-1.2-.62-1.82-.79.65-.09,1.27.06,1.82.79ZM218.96,247.2s.02.03.04.05c-.02.03-.03.07-.05.1,0-.05,0-.09,0-.14,0,0,.01,0,.02,0ZM218.26,217.36s0,0,0,.01c0,0,0,0-.01,0,0,0,0,0,0,0ZM212.61,214.21c-.15-.02-.3-.02-.43,0-.03-.25-.05-.49-.07-.74.17.26.33.5.5.75ZM209.18,346.66c.05.07.09.13.14.2-.09-.04-.15-.08-.23-.12.03-.03.07-.05.09-.08ZM206.67-30.15s-.04.07-.06.11c-.02,0-.05-.01-.07-.02,0-.02-.02-.04-.03-.06.06,0,.1-.02.16-.03ZM194.54-31.44c.02.08.04.16.06.23-.13-.02-.25-.03-.37-.05.12-.06.21-.12.31-.18ZM194.13-31.27c-.06,0-.11-.02-.17-.03,0,0-.01-.02-.02-.03.06.02.12.04.19.05ZM191.63-90.59s.03-.03.05-.04c.01.04.02.09.03.14-.02-.04-.05-.07-.07-.1ZM192.49,492.98s-.14,0-.14,0h0,0s0,0,0,0c.05,0,.1,0,.15,0ZM191.74-90.7s-.04.05-.06.07c-.02-.04-.03-.08-.05-.13.04,0,.08.03.11.06ZM129.82,17.73c0-.05,0-.1,0-.16.04.04.08.08.12.11-.04.02-.08.03-.11.04ZM132.66,67.91h0s.01,0,.02,0c0,0-.02,0-.02,0ZM132.98,74.28s.03.02.04.02c0,0,0,0,0,0-.02,0-.03-.02-.05-.03ZM133.29,74.47s0,0-.01,0c.01,0,.02.01.03.02,0,0-.01,0-.02-.01ZM136.4-39.04c.13-.18.29-.21.46-.13-.15.04-.3.08-.46.13ZM137.41,1.59c-.17-.3-.33-.58-.51-.92.24.09.48.13.72.15-.08.23-.15.48-.21.77ZM139.32,112.15c-.03-.06-.05-.11-.08-.17.03,0,.05-.02.08-.02,0,.07,0,.13,0,.19ZM142.18,90.52c-.05-.15-.09-.3-.15-.45.12.06.22.1.33.16-.07.08-.13.18-.18.29ZM146.52,32.52c-.13-.11-.24-.22-.38-.33.17.06.32.12.49.17-.04.05-.08.11-.11.16ZM147.91,21.54c-.03-.11-.06-.23-.09-.34,0-.02.02-.04.03-.06.07.12.16.22.24.33-.06.02-.12.05-.18.07ZM149.71,94.29c-.44-.27-.84-.58-1.17-.98,0,0,0-.01,0-.02.61-.23,1.19-.37,1.76-.46-.29.49-.49.98-.58,1.46ZM151.18,228.54s-.01-.09-.03-.14c.05.03.11.07.16.1-.04.02-.09.03-.13.05ZM153.49,390.86c-.09-.22-.16-.44-.26-.66.19-.05.38-.07.57-.1-.05.32-.14.59-.31.76ZM156.49,186.08c-.28.27-.22,0-.04-.22.02.07.04.14.05.21,0,0,0,0-.01,0ZM157.41-58.38h0s0,0,0,0c0,0,0,0,0,0ZM157.46,3.97s-.02,0-.02-.01c0-.15.03-.31.06-.49,0,0,0,0,0,0-.03.17-.05.34-.04.5ZM158.47-86.23s-.02-.03-.02-.05c0,0,0-.02.01-.02.03,0,.06,0,.08-.01-.03.03-.05.06-.07.09ZM160.86,96.74c-.07-.25-.13-.51-.21-.76.32.07.75.25,1.12.25-.4.14-.69.31-.91.51ZM163.21,296.41s0-.05.01-.07c0,0,0,0,0,0,0,.02,0,.03,0,.05,0,0-.02.02-.02.02ZM162.87,41.55c-.14-.16-.31-.29-.48-.43.29.02.57.03.85.02-.1.14-.2.28-.36.41ZM164.4,309.42s-.01-.05-.02-.07c.02,0,.04,0,.07,0-.02.02-.03.04-.04.07ZM165.7-49.98c.07.05.12.1.19.14,0,0,0,0,0,0-.08-.02-.14-.06-.21-.09,0,0,.02,0,.03-.01,0-.02,0-.03,0-.04ZM165.79,7.94c.02-.06.02-.12.04-.18.03.03.07.05.1.08-.05.03-.09.07-.14.1ZM168.01,359.71c.04-.07.08-.14.11-.22.08.08.17.15.25.24-.12-.01-.24-.02-.36-.02ZM170.67-4.32c.01-.11.02-.22.02-.33.19.13.38.25.49.47-.19-.06-.35-.1-.51-.14ZM173.52,361.94c0-.18,0-.33-.01-.48.07,0,.14.02.2.02-.07.15-.11.29-.19.46ZM173.96-178.26c-.03-.17-.04-.31-.07-.48.14.12.28.23.42.35-.12.04-.25.08-.35.14ZM175.7,184.73s0-.01,0-.02c0,0,0,.01.01.02,0,0,0,0-.01,0ZM176.87-162.01s-.06,0-.09-.01c.03,0,.07,0,.1,0h-.01ZM179.35,225.58s.07-.1.12-.14c0,0,0,0,0,0,0,0,0,0,0,0,.03.09.07.19.1.28-.07-.05-.14-.09-.22-.14ZM183.03,410.22s0,0,0-.01c0,0,0,0,0,.01-.04-.06-.06-.12-.1-.18.06.02.12.05.19.07-.03.03-.05.07-.08.1ZM183.45,347.07c.38-.06.67-.16.88-.29.21.42.42.85.63,1.31-.51-.44-1.01-.76-1.51-1.02ZM187.68-89.33c-.04-.06-.08-.12-.12-.18h0c.11.05.21.08.31.11-.07.02-.13.04-.2.06ZM192.19,550.16s.02-.03.04-.04c.05.03.09.06.14.08-.06-.02-.12-.03-.17-.04ZM201.46,587.78h0s0,0,0,0c0,0,0,0,0,0ZM203.18,573.85s-.03-.05-.04-.08c0,0,0,0,0,0h0s.03,0,.04,0c0,.03,0,.06,0,.09ZM203.64,527.52s0,0,0,0c.04.04.1.05.14.09-.05-.03-.09-.06-.14-.09ZM189.73,670.18c-.01-.52-.02-1.05-.05-1.57.31.49.42,1.03.05,1.57ZM189.48,689.59h0s0,0,0,0h0s0,0,0,0ZM188.89,639.23c.1.02.2.04.29.05-.15.27-.37.43-.68.42.14-.17.27-.32.39-.47ZM25.58,422.14h0s-.03,0-.05,0c0,0,.01-.01.02-.02,0-.01,0-.02,0-.03.01.02.03.03.04.05,0,0,0,0,0,0h0ZM32.78,545.43s0,0,0,0h0s-.02-.04-.03-.06c.03,0,.06.02.09.02-.02.01-.04.03-.06.04ZM33.29,294.96s-.03-.03-.04-.05c.08-.29.17-.49.26-.62-.08.21-.15.44-.22.66ZM33.76,341.43s.02-.02.02-.02c.03.01.05.02.07.03,0,0,0,.01.01.02-.04,0-.07-.01-.11-.02ZM34.84,423.97s.03-.03.04-.05c.02.03.04.07.06.1-.03-.02-.06-.03-.1-.05ZM35.75,340.37c-.08-.11-.15-.18-.23-.27.09.02.18.07.29.15-.02.04-.04.08-.06.12ZM36.65,291.09v-.03s.02.02.02.02c0,0-.02,0-.02,0ZM41.67,268.07s-.03,0-.04,0c.02-.01.03-.03.05-.04,0,.01,0,.03,0,.04ZM42.29,571h0s-.04-.02-.06-.03c.03-.01.06-.02.09-.03-.01.02-.02.04-.03.06ZM44.4,377.13s0,0,0,0c0,0,0,0,0,0,0,0,0,0,0,0ZM51.71,275.54s.02,0,.02,0c0,0,0,0,0,0,0,0-.01,0-.02,0,0,0,0,0,0,0ZM47.86,317.92s.1-.09.15-.13c.03.06.07.13.1.19-.09-.03-.16-.03-.25-.06ZM48.31,301.48c0-.23-.02-.48-.05-.75.23.18.47.37.72.55-.24.05-.45.13-.67.2ZM49.45,583.41c.05-.2.13-.37.17-.31.09.14.2.26.3.38-.15-.03-.31-.05-.46-.08ZM50.21,475.64c.13-.03.28-.05.43-.05.07.07.14.14.2.21-.23-.07-.44-.13-.63-.16ZM50.95,688.59c-.08,0-.16.02-.24.03.07-.03.14-.05.22-.07,0,.02.02.03.02.05h0ZM51.73,424.2c-.08-.14-.16-.28-.24-.42.1-.12.21-.24.3-.37-.02.26-.04.53-.06.79ZM53.51,487.13c.06.05.12.11.18.17h0c-.11-.02-.21-.04-.32-.07.04-.03.09-.07.14-.1ZM53.99,678.85c-.11-.12-.21-.22-.3-.31.1-.08.22-.14.34-.19,0,.16,0,.32-.04.5ZM56.02,684.64c.03-.15.02-.28.03-.41.02.03.05.06.07.08-.02.11-.05.22-.1.32ZM56.84,624.68s.01,0,.02,0c0,0,0,0,0,.01,0,0-.01,0-.02,0ZM56.8,535.49s.03-.06.05-.09c0,.02.02.03.03.05-.03.01-.05.03-.08.04ZM57.4,387.69s.02-.01.02-.02c0,.03,0,.06,0,.09,0-.03-.02-.05-.02-.08ZM57.97,599.1s0-.02,0-.02c0,0,0,0,.01,0,0,0,0,.01-.02.02ZM58.84,530.68s0,0,0,0c-.09-.02-.18-.03-.26-.08.09.02.17.05.26.07ZM58.86,710.3c-.05-.19-.1-.38-.17-.59.14.2.24.42.31.65-.05-.02-.09-.04-.14-.06ZM59.67,428.13s.03-.07.04-.11c.01.02.02.05.03.07-.03.01-.05.03-.08.04ZM59.81,367.06c-.33-.45-.41-.92.37-1.28-.17.41-.3.84-.37,1.28ZM61.17,587.79s0,0,0-.02c0,0,0,0,0,0,0,0,0,0,0,0h0c-.18.01-.33.02-.47.03.14-.04.31-.06.51-.05-.01,0-.02.01-.03.02.01,0,.02,0,.04.01-.02,0-.03,0-.05,0ZM61.32,681.6s0-.04.01-.05c.01.02.01.03.03.05-.01,0-.02,0-.04,0ZM62.49,415.79s0,0-.01-.01h0s0,0,0,0h0s0,0,0,0c0-.02-.01-.04-.02-.06.02,0,.03.01.04.02.02,0,.03-.02.05-.03-.02.03-.03.05-.05.08ZM62.77,352s-.01-.07-.02-.1c.01.04.02.07.03.11,0,0,0,0-.01,0ZM63.59,526.31s-.02-.06-.02-.1c.02.03.04.04.07.07-.01,0-.03.02-.04.03ZM65.04,598.87s-.03-.03-.05-.05c.01-.04.02-.07.04-.11.38-.24.8-.25,1.23-.11-.41.09-.82.18-1.22.28ZM66.87,438.49h0s0,0,0,0c0,0,0-.01,0-.02,0,0,.01,0,.02-.01,0,0,0,.02,0,.03ZM67.01,742.76s.05-.07.07-.12c.02,0,.04,0,.06.01-.04.05-.08.08-.12.11ZM67.16,731.95s0-.07-.01-.1c.04,0,.08.01.11.02-.04.03-.07.06-.1.08ZM68.42,551.65s-.07-.03-.1-.04c0,0,0,0,0-.01.05.02.09.03.13.05-.01,0-.02,0-.04,0ZM68.64,704.59s-.05.08-.08.12c0-.09,0-.18,0-.27.1.02.19.06.28.08-.07.03-.13.04-.19.07ZM72.43,350.74s0,0,0,0c-.01.01-.02.03-.04.04,0-.06,0-.1,0-.15.01.04.03.07.04.11,0,0,0,0,0,0,0,0,0,0,0,0ZM75.12,687.02s-.03-.05-.05-.07c.02-.01.04-.02.06-.03,0,.04,0,.07-.02.11ZM75.9,346.39s0-.01.01-.02c0,0,0,.02.01.03-.01,0-.02,0-.03,0ZM77.06,669.28s0,0,0,0c0,0,0,0,0,0,0,0,0,0,0,0ZM78.32,748.3s.03-.07.04-.11c.02.03.03.06.05.09-.03,0-.06.01-.09.02ZM80.94,714.7s.02-.03.02-.04l.22-.09c.03.06.06.12.09.18-.11-.02-.22-.03-.33-.05ZM81.26,421.92s.02-.03.03-.05c0,0,.01.02.02.03-.02,0-.03.01-.05.02ZM82.82,673.2h0,0s0,0,0,0h0s0,0,0,0h0,0s-.07-.09-.1-.13c.08-.03.16-.05.23-.08-.05.07-.08.14-.13.22ZM82.69,553.8c.05-.15.11-.28.17-.43.05.09.12.17.19.24-.12.07-.23.13-.35.19ZM83.12,561.36c.02-.06.04-.1.06-.16.01.03.03.06.04.09-.03.03-.06.05-.09.08ZM83.56,446.54c-.09-.14-.2-.16-.46.02-.56.39.25-.76.47-.19,0,.05,0,.11,0,.17ZM83.65,472.98s-.02-.09-.03-.14c.06.04.11.1.16.15-.04,0-.09,0-.13,0ZM84.66,653.14h0s-.02-.04-.03-.07c.03,0,.06-.01.09-.02-.02.03-.03.06-.06.08ZM85.83,609.61s.07.07.11.1c0,.04.02.08.03.13-.05-.08-.08-.15-.14-.23ZM89.45,450.07c.19.06.39.15.59.23-.22-.03-.45-.07-.68-.14.03-.03.07-.06.1-.09ZM90.08,611.9s-.02,0-.03,0c-.02-.01-.03-.02-.05-.03.03.01.06.03.08.04,0,0,0,0,0,0ZM90.22,789.39c.09-.12.17-.25.25-.39.04.07.09.15.13.22-.13.08-.26.14-.38.17ZM90.81,517.65h0s0,0,0,0h0ZM90.89,419.76s.04.02.06.02c-.01,0-.03,0-.04,0,0,0-.01,0-.02-.01ZM90.92,687.75s0-.03,0-.05c.03,0,.06-.01.09-.02-.03.02-.06.04-.09.07ZM92.87,629.87s.04-.08.06-.12c.03.03.07.04.1.07-.05.02-.1.04-.16.05ZM94.45,494.17s.1-.02.15-.03c-.04.03-.07.06-.11.1-.01-.02-.02-.04-.03-.06ZM94.61,545.37s-.01-.03-.02-.05h0s0,0,0,0c.02.01.03.02.05.03,0,0-.02.01-.03.02ZM94.83,841.31s-.08,0-.12,0c.02-.03.04-.08.06-.12.02.04.05.08.06.12v-.02s0,0,.01.01c0,0,0,0-.01,0ZM95.63,827.92s-.01-.02-.02-.02c-.11-.03-.22-.05-.32-.08.09-.05.18-.1.31-.1h0s.01.18.01.18c0,0,.02,0,.02-.01,0,.01,0,.02,0,.04ZM96.64,423.98s.06-.06.09-.09c.01.02.03.05.04.07-.04,0-.09.01-.13.02ZM96.98,536.92s-.01,0-.02-.01c0-.03,0-.06.01-.1,0,0,.02,0,.02-.02,0,.04-.02.09-.02.13ZM100.37,506.35s-.03.1-.04.14c-.07,0-.14,0-.21,0,.09-.05.17-.1.25-.15ZM98.14,424.36h0s0,0,0,0c0,0,0,0,0,0h0s0,0,0,0c0,0,0,0,0,0-.01-.03-.02-.05-.03-.08.02,0,.03,0,.05.01,0,.02,0,.04-.01.06ZM99.28,664.16c-.33-.07-.63-.14-1-.19.38-.05.72-.09,1.07-.14-.03.11-.06.22-.07.33ZM98.87,642.48c.59-.6,1.15-1.29,1.61-2.01.01.99-.23,1.81-1.61,2.01ZM101.16,827.05s.04-.03.07-.04c0,.07,0,.14.02.21-.03-.05-.05-.11-.08-.16ZM101.74,573.38s0-.07,0-.1c.03.03.05.07.08.1-.02,0-.05,0-.07,0ZM102.74,574.69s.01,0,.02.01c0,.01,0,.03-.02.04,0-.02,0-.03,0-.05ZM102.83,802.37s0,0,0,0c0,0,0,0,0,0-.1-.1-.19-.17-.29-.25.09,0,.19.02.29.04,0,.07,0,.14,0,.21ZM105.51,414.48c.02-.08.02-.15.05-.22h0s.07.06.11.08c-.05.05-.1.1-.16.14ZM107.4,802.16s0,0,0,0c-.03,0-.06,0-.1,0,.02-.03.04-.07.06-.1.01.03.03.05.04.07,0,0,0,0,0,.01h0s0,0,0,0ZM107.66,785.61c-.03-.06-.06-.11-.1-.17h0s0,0,0,0c.04-.02.09-.05.13-.07-.02.09-.02.17-.03.25ZM107.45,393.61s-.03-.1-.05-.14c.11.03.2.07.32.1-.1.02-.18.03-.27.05ZM114.33,634.11c-.18.04-.36,0-.55-.06.1-.13.2-.26.32-.4.08.15.16.31.24.46ZM113.93,434.74s0,.03,0,.04c-.07-.08-.13-.17-.21-.26.09.07.14.14.22.22ZM112.71,847.99s0-.05,0-.07h0s0,0,0,0c.02.02.04.06.06.08-.02,0-.04,0-.06,0ZM113.05,688.28c.14-.08.26-.16.37-.24.03.09.06.18.1.27-.16-.01-.3-.02-.47-.04ZM113.54,690.3c.19.05.4.07.61.1-.2.05-.42.04-.61-.1ZM114.36,690.32s-.03-.02-.04-.03c.04,0,.08,0,.12,0-.02.02-.05.02-.08.04ZM117.46,706.72s0,0,0,0c0,.01,0,.02.01.03,0-.01-.01-.02-.02-.03ZM116.61,657.3c0-.58.26-1.31,1.17-1.44.13.11.21.22.27.34-.56.36-1.05.73-1.44,1.09ZM118.48,794.65s.03-.02.04-.03h0s0,0,0,0c0,.02,0,.03,0,.04-.02,0-.03,0-.05-.01ZM119.01,485.26s.07-.05.1-.08c0,.05.02.1.02.15-.04-.02-.08-.05-.13-.07ZM120.17,438.21s0,0,0,0h0s0,0,0,0c0,0,0,0,0,0,0,0-.01-.01-.02-.02.02,0,.03-.01.04-.02,0,.01,0,.02-.02.04ZM120.66,703.27c-.06-.17-.03-.33.07-.49-.02.15-.05.33-.07.49ZM122.78,834.05s.03-.05.05-.07h0s0,0,.01-.01c0,0,0,0,0,.01.02.02.03.04.05.06-.04,0-.07,0-.1.01ZM123.45,687.76c.34-.05.68-.09,1.03-.09-.33.19-.67.21-1.03.09ZM126.38,632.16s-.03,0-.04,0c0-.03.02-.06.03-.09,0,.01.02.02.03.03,0,.02-.01.03-.02.05ZM126.48,832.17c-.01-.08-.02-.15-.03-.24,0,0,0,0,0,0h0s.04.02.07.02c0,.08-.02.15-.04.22ZM127.92,670.75s0,0,0,0c0,0,0,0,0,0-.04-.05-.07-.1-.1-.15.04,0,.09,0,.13,0-.01.05-.01.1-.03.16ZM128.1,499.8c-.03-.1,0-.26,0-.4h0c0,.14-.02.28,0,.4ZM130.06,570.63s-.02,0-.03-.01c-.02-.03-.04-.06-.06-.09.06.02.12.02.18.03-.03.02-.05.04-.09.07ZM130.62,771.36s0,0-.02,0c0,0,0,0,.01-.01,0,0,0,0,0-.01h0s0,0,0,0c0,0-.01.02-.02.02,0,0,0,0,0,0,0,0,0,0-.01,0,0,0,0,0,0,0-.01-.01-.02-.02-.03-.03.03,0,.05,0,.08,0,0,.01-.01.02-.02.03,0,0,0,0,0,0ZM132.32,662.09s0-.06.01-.09c.03.03.05.06.07.09-.03,0-.06,0-.09,0ZM134.81,819.13c-.04-.05-.06-.11-.1-.16.06.01.11.04.17.06-.02.03-.04.07-.06.1ZM136.59,673.89s0,0,0,0c0,0,0,0,0,0,0,0,0,0,0,0ZM137.47,718.52c.02-.22.06-.44.12-.67.13.2.16.44-.12.67ZM137.73,505.71h-.02s0,0,0,0c0,0,.01,0,.02,0,.02-.02.04-.03.05-.05,0,.02,0,.05,0,.08-.02,0-.04-.02-.06-.03ZM139.89,864.71s.07.03.11.04c0,0,0,0,.01,0,0,0,0,0,0,0h0s0,0,0,0c0,0,0,0,0,0,0,0,0,0,0,0,0,0,0,0,0,0,0,0,0,0,0,0,.01.01.02.02.03.03-.05-.03-.11-.05-.16-.09ZM140.21,732.09s-.05-.07-.08-.1c.03,0,.07.01.1.02-.01.03-.02.06-.03.08ZM142.62,575.64s0-.04.01-.06c.06,0,.12.02.18.04-.06,0-.13,0-.2.01ZM143.75,537.91s0,0,0,0c0,.02,0,.04,0,.07,0-.02,0-.04-.01-.07ZM144.38,689.85s0-.02,0-.03c0,0,.01.02.02.03,0,0-.02,0-.03,0ZM145.29,542.94c-.02-.09-.04-.15-.07-.24.06.02.11.02.16.03-.03.07-.06.14-.09.21ZM145.59,577.06c.15-.29.3-.64.46-1.13,0,0,0,0,0,0h0c.06.08.1.17.15.25-.21.53-.42.79-.61.88ZM147,688.6s0,0,0,0c0,0,0,0,0,.01,0,0,0,0,0,0ZM149.47,645.58s-.08-.06-.13-.09c.09,0,.17-.02.25-.02-.04.04-.08.07-.12.11ZM150.08,593.94s-.02-.07-.04-.11c.05.01.09.03.15.04,0,0,0,0,0,0,0,0,0,0,0,0-.04.02-.07.04-.11.06ZM150.43,838.79s.01-.04.02-.05h0s.02.03.03.05c-.02,0-.04,0-.05,0ZM152.83,640s0-.05,0-.08c.09.13.17.27.23.4-.09-.09-.16-.21-.24-.32ZM153.38,557.52s-.01-.06-.01-.1c0,.04.01.07.02.1,0,0,0,0,0,0ZM155.48,712.2s0,0,0,0c0,0,0,0,0,0,0,0,0,0,0,0ZM157.01,780.35h0s0,0,0,0c0,0,0,.02,0,.03-.04.03-.08.05-.11.08.02-.07.04-.13.07-.2.02.03.04.05.06.07,0,0,0,.01,0,.02ZM157.78,558.68s-.05,0-.07,0c.03-.04.05-.07.07-.11,0,.02.02.03.03.05-.01.02-.02.04-.03.06ZM158.04,769.25s-.03-.03-.04-.04c-.06-.02-.12-.03-.18-.05.01,0,.03-.01.04-.02,0,0,.14.07.14.07.02,0,.04,0,.06.01,0,0-.01.02-.02.03ZM158.84,835.18c.09-.03.16-.07.26-.1,0,0,0,0,.01,0,0,0,0,0,0,0,0,.21.05.37.09.55-.13-.13-.25-.29-.36-.45ZM161.29,821.85s0,.08,0,.12c-.02-.04-.05-.09-.07-.13.03,0,.06.01.08.01ZM161.26,821.98s.01,0,.02,0c0,0,0,.01.01.02-.01,0-.02-.01-.03-.02ZM161.6,704.47c.11.05.23.11.33.18.02.12.04.23.07.35-.16-.18-.29-.35-.4-.53ZM163.71,832.53s.02.02.04.03c-.01,0-.02-.02-.03-.02,0,0,0,0,0,0ZM164.29,833.03c-.07-.06-.14-.11-.22-.17-.01-.03-.04-.05-.06-.08.1.08.2.14.28.23,0,0,0,.02,0,.02ZM165.23,567.62s0,0-.01,0c0,0,0,0,0,0,0,0-.02-.01-.02-.02.02,0,.04,0,.06,0,0,0-.02.02-.03.03ZM165.57,855.41c.02-.06.03-.11.06-.17,0,0,0,0,0,0,.03.05.05.1.08.15-.04.01-.09.02-.14.02ZM167.39,573.57s0-.03,0-.05c.04,0,.07-.01.11-.02-.03.02-.07.05-.11.07ZM168.52,769.27h.02s0,.01,0,.03c-.01,0-.02-.02-.03-.03ZM168.67,776.78c.06-.03.11-.06.16-.09.07.2.14.39.19.59-.12-.15-.24-.32-.35-.51ZM169.26,564.19s0-.02-.01-.02h0s0,.01,0,.02c-.02-.04-.04-.09-.06-.13.15,0,.3-.03.45-.09-.12.07-.25.15-.37.22ZM170.61,813.25s0-.04,0-.05h0s0,.03,0,.05c0,0,0,0,0,0ZM170.63,813.22s-.01-.02-.02-.02c.01,0,.02,0,.04,0,0,0-.01.02-.02.03ZM171.8,876.88s-.03-.09-.05-.13h0c.07,0,.12.02.18.03-.04.03-.09.06-.13.1ZM173.86,628.29s-.02.09-.02.14c-.01,0-.02,0-.03,0,.02-.04.03-.09.05-.13ZM172.74,578.9s0,0,0,0c0,0,0,0,0,0,0,0,0,0,0,0ZM173.79,748.57s-.05-.09-.07-.13h0s0,0,0,0c.06.01.11.03.16.04-.03.03-.06.06-.1.09ZM175.01,735.91s-.03-.04-.05-.06c.04.01.07.02.11.03-.02,0-.04.02-.06.03ZM175.47,872.56s-.05-.06-.07-.09c.03,0,.06,0,.09,0,0,.03,0,.06-.02.1ZM176.56,640.97h0s-.03-.08-.05-.12c.02.03.04.06.06.09,0,0-.01.02-.02.02ZM-44.71,701.2c.02.35.02.7,0,1.05-.23-.41-.33-.79,0-1.05ZM-40.22,714.67s-.07,0-.11,0c.01-.03.04-.04.05-.07.03.02.05.04.07.06,0,0-.01,0-.02,0,0,0,0,0,0,.01ZM-31.12,760.75s.01-.01.02-.02c0,0,.01.01.02.02h0s-.02,0-.04,0ZM-19.46,703.07s0,0,0,0c.02-.04.03-.07.04-.11,0,0,0,0,0,.01-.01.03-.03.06-.04.09ZM-16.46,752.39s.05-.02.07-.03c.02.04.03.08.05.12-.04-.03-.08-.06-.12-.09ZM-15.64,819.91h0s0,0,0,0c-.01,0-.02-.02-.03-.02.03-.02.06-.05.08-.07-.02.03-.04.06-.06.09ZM-11.77,727.29s0-.02,0-.03c0,0,0,.01,0,.02,0,0,0,0,0,0ZM-11.44,764.02s-.02,0-.03-.02c.01,0,.02,0,.03,0,0,0,0,.01,0,.02ZM-7.91,712.75c-.23.5-.25-.13,0-.17.02.07.02.14.04.2-.02,0-.03-.02-.05-.03ZM-6.13,718.21s0,0,0,0h0s0,0,0,0ZM-4.89,743.71c-.06,0-.11-.03-.17-.04.16-.17.31-.3.46-.37-.1.13-.19.26-.29.41ZM-1.98,757.51h0s0,0,0,0c0,0,0,0,0,0h0s0,0,0,0c0,0,0,0,0,0,0-.03,0-.05,0-.08.03.02.07.03.1.04-.03.01-.07.03-.1.04h0ZM-1.86,751.71c-.03-.05-.07-.11-.1-.16.06-.03.11-.05.16-.08-.01.09-.04.16-.06.25ZM3.15,775.03s0,0,0,0c0,0,0,.02.01.03,0,0-.01-.01-.02-.02ZM4.52,747.96s0-.03.01-.05c.03,0,.05,0,.08,0-.03.02-.06.04-.09.05ZM5.42,836.63s-.06.04-.1.06c.01-.04.04-.07.05-.11.02.02.03.04.05.06,0,0,0,0,0,0,0,0,0,0,0,.01,0,0,0,0,0,0ZM14.98,832.46s-.01.07-.01.1c-.02-.02-.05-.03-.08-.05.03-.02.06-.04.09-.05h0s0,0,0,0c0,0,0,0,0,0ZM15.19,866.85s.01,0,.02,0c0,0,0,0,0,0,0,0-.02,0-.03,0ZM-150.08,843.72c.05-.08.1-.15.16-.23.02.09.05.19.06.28-.08-.01-.14-.04-.22-.05ZM-147.11,852.96s0,0,0,0c0,0,0,0,0,0,0,0-.01,0-.02,0,0-.01,0-.02,0-.03,0,0,0,.01,0,.02h0s0,0,0,0c0,0,0,0,0,0ZM-144.91,859.68c-.05-.04-.1-.07-.15-.11.15-.07.3-.15.45-.22-.11.11-.2.22-.3.33ZM-142.71,848.14s0-.01,0-.02c0,0,0,0,0-.01,0,0,0,0,0,0h0s0,.03.01.03c0,0-.02,0-.02,0ZM-113.4,859.01c-.07-.42-.04-.88.13-1.41.11.13.22.22.34.3-.15.31-.31.68-.47,1.11ZM-104.24,949.17c.05-.05.1-.09.16-.14h0c.03.1.09.18.12.28-.09-.05-.18-.09-.28-.14ZM-102.44,946.29s0,0,0,0c0,0,0-.01,0-.02,0,0,0,0,0,.02ZM-102.38,945.7s-.03-.05-.05-.08c.02,0,.03,0,.05,0,0,.03,0,.05,0,.08ZM-90.82,974.92s0-.01,0-.02c0,0,0,0,.01,0,0,0,0,0-.02.01ZM-86.36,899.92s-.02-.02-.03-.02c0,0,0,0,.01-.01.02,0,.03,0,.05,0-.01.01-.02.03-.03.04ZM-80.48,976.29s-.01-.03-.02-.04h0s0,0,0,0c.01,0,.02.01.04.02,0,0-.01.01-.02.02ZM-79.57,964.72c-.3.58-.41-.49-.03-.16.05.11.1.22.15.32-.04-.05-.08-.11-.12-.16ZM-76.36,889.9c-.19.23-.35.34-.5.37.36-.44.67-.87.87-1.31.02.29-.08.6-.36.94ZM-57.22,962.19s.01-.03.02-.05c.03,0,.05-.01.08-.02,0,.02.01.04.02.06-.04,0-.08,0-.12,0ZM-46.92,893.83c-.1.46-1.48-.08-1.52-.68,0-.04-.01-.07-.02-.11.48-.05,1.1-.24,1.92-.53-.13.3-.26.73-.38,1.32ZM-44.28,940.55c-.02-.26-.05-.49-.09-.72.11.07.22.12.32.16-.08.19-.14.37-.24.56ZM-42.33,890.97c-.08-.1-.16-.2-.24-.3.11.05.19.12.28.19-.01.04-.04.07-.05.11ZM-34.53,924.46s-.03-.06-.05-.09c0,0,0,0,0,0,.02,0,.04.01.06,0,0,.03,0,.06-.01.08ZM-34.18,987.67s-.04-.01-.06-.02c.02-.07.04-.14.07-.21,0,.08-.02.15-.02.23ZM-25.92,933.77h0s0,0,0,0c0,0,0,0,0,0ZM-24.28,917.67s0-.02.01-.04c.01.04.03.09.05.13-.02-.03-.04-.06-.06-.09ZM-22.21,998.36c0-.06-.01-.13-.02-.19.05-.02.09-.04.15-.09.46-.35.16.33-.14.28ZM-18.3,955.73h0s0,0,0,0c0,0,0,0,0,0ZM-6.88,901.77h0,0s0,0,0,0ZM-2.73,984.85c.21-.4.43-.82.67-1.27.12.54.29,1,.5,1.41-.46-.07-.85-.12-1.17-.14ZM-1.57,934.64s-.02-.04-.04-.06c0-.01,0-.03,0-.04.03,0,.06,0,.09,0-.02.03-.04.07-.05.11ZM9.07,985.63s.02-.03.03-.04c0,0,0,0,0,.01-.02,0-.03.02-.04.03ZM9.15,985.72s-.02-.07-.03-.11c.04,0,.08.02.12.03-.03.03-.06.05-.09.08ZM10.27,960.7c-.32-.12-.63-.25-.91-.41.33.12.65.25.96.38-.02,0-.04.01-.06.02ZM15.86,977.59s0,0,0,0c0,0,0-.01.02-.02,0,0,0,0,0,.01ZM16.14,976.92s0,.01,0,.02c0,0,0-.01,0-.02,0,0,0,0,0,0,.02,0,.03,0,.05-.02,0,.02,0,.05,0,.07-.02-.02-.03-.04-.05-.06ZM20.34,978.73c-.04-.21-.05-.44-.04-.67,0,0,0,0,0,0,.03.08.04.15.07.23-.03.16-.04.31-.03.45ZM20.71,832.58c-.25-1.99.82-1.28,1.87-.8-.65.24-1.28.51-1.87.8ZM23.24,966.23c-.06-.11-.12-.21-.18-.32.21.02.41.07.61.11-.13.06-.29.14-.43.21ZM28.15,847.54s.05.07.08.11c-.03,0-.06.01-.09.02,0-.04,0-.08,0-.12ZM28.21,890.04c-.08-.24-.25-.48-.5-.73.45.09.9.19,1.37.29-.33.11-.62.27-.87.44ZM29.69,915.88s-.11-.04-.17-.06c0,0,0,0,0-.01.09,0,.17.03.24.08-.02,0-.04,0-.07,0ZM30.6,830.89s-.04,0-.06,0c.02-.02.03-.03.05-.05,0,.01.01.03.02.04,0,0,0,0,0,0h0ZM32.29,954.8c-.01.06-.02.13-.03.19,0,0-.01,0-.02.01.01-.07.04-.13.05-.2,0,0,0-.01,0-.02,0,0,0,0,0,0h0ZM35.86,959.03c.09-.27.14-.52.2-.77.13.06.27.09.43.11-.21.22-.42.43-.63.66ZM36.65,837.04c0-.06.01-.11.02-.17.04.06.07.12.11.18l-.13-.02ZM37.27,886c0-.05,0-.11.02-.16,0,.02,0,.05,0,.07,0,.03-.01.06-.02.09ZM38.47,827.72s-.01-.02-.01-.03c0-.02.02-.05.03-.07.02-.02.04-.04.06-.06-.02.05-.05.11-.07.16ZM40.57,863.35s-.02.01-.03.02c-.04-.11-.06-.2-.07-.28.03.07.07.15.1.22,0,.01,0,.03,0,.04ZM40.64,863.09c.02-.08.05-.16.07-.24.04,0,.08-.01.13,0-.1.07-.15.16-.2.25ZM42.08,853.03s-.01-.03-.02-.04h0s0,0,0,0c.01,0,.03,0,.04.01,0,0-.01.02-.02.03ZM42.15,795.44c0-.1.02-.18.02-.27.05.04.1.09.15.13-.06.05-.12.09-.18.14ZM45.61,1024.4c-.05-.24,0-.47.23-.67-.08.22-.15.45-.23.67ZM46.22,833.77c.04-.44.09-.87.17-1.31.3.04.5.14.66.27-.33.39-.61.75-.83,1.04ZM47.13,924.07c0-.06,0-.1-.02-.17.04.02.09.05.13.07-.03.04-.08.06-.11.1ZM49.19,867.95h0s0,0,0,0ZM49.15,868.08s.02-.05.03-.08c0,.02.02.03.03.05-.02.01-.04.02-.06.03ZM50.4,837.7c-.07-.26-.13-.53-.16-.81.26-.06.49-.02.7.07-.22.28-.39.52-.54.74ZM51.63,815.38s.06-.04.09-.06c.03.05.05.1.08.15-.06-.03-.11-.06-.17-.09ZM55.55,869.3h0s-.04-.06-.06-.1c.05,0,.1-.01.15,0-.04.06-.08.11-.08.11ZM56.11,886.92s-.01-.05-.02-.07c.02-.02.03-.03.04-.05.03,0,.04.01.07.02-.03.03-.06.07-.09.11ZM56.5,881.93c.05-.08.1-.15.16-.24h0s0,0,0,0c.05.1.1.2.15.3-.1-.02-.21-.02-.31-.05ZM58.56,873.98c-.06-.12-.12-.24-.19-.35.16-.03.29,0,.42.02-.06.11-.14.22-.24.33ZM59.31,843.42s0-.01,0-.02c0,0,0,0,.01,0,0,0,0,.01-.01.02ZM59.57,888.5s.03,0,.05,0c0,.04,0,.07,0,.11-.02-.03-.04-.07-.06-.1ZM61.84,1013.7c-.52.44-.39-.65-.3-.54.18.1.35.22.5.33.02.06.03.12.05.19-.09-.03-.18-.04-.25.03ZM62.45,1023.57s0,0,0,0c0,0,0,0,0,0,0,0,0,0,0,0ZM63.38,1033.74s0,0,0,0c0,0,0,0,0,0,0,0,0,0,0,0,0-.01-.02-.02-.02-.03.02,0,.04,0,.06.01,0,0-.01.01-.02.02ZM68.35,980.99s0,.02.01.02c0,0-.01,0-.02,0,0,0,0-.01,0-.02ZM68.05,981.52s-.07.06-.1.08c.12-.16.25-.34.41-.58,0,0,0,0,0,0-.08.18-.18.36-.31.51ZM68.46,898.21s0,0,.01-.02c.17-.34.16-.11-.01.02ZM72.58,860.84s-.02.02-.03.04c.05-.09.09-.17.15-.23-.04.07-.08.13-.12.2ZM72.9,953.78s0,0,0,0c0,0,0,0,.01-.01,0,0,0,0,0,.01ZM73.2,953.62s-.03-.08-.05-.12c.02-.03.03-.07.05-.1.01,0,.02,0,.04,0,0,.08,0,.15-.04.22ZM75.72,949.58s0-.03,0-.04c0,0,.02,0,.02,0,0,.01-.01.03-.02.04ZM79.53,911.73s-.06-.04-.09-.06c.03-.5.05-1,.06-1.5.35.45.33,1,.03,1.56ZM81.85,911.62s0,0,0,0h0s0,0,0,0c.04-.02.07-.03.11-.05.05.12.1.25.13.36-.08-.1-.14-.2-.24-.31ZM82.86,1018.06c.06-.03.12-.06.18-.08.02.02.03.04.05.06,0,.07.02.13.02.2-.08-.06-.17-.12-.26-.18ZM88.08,895.06s-.04-.02-.06-.02c0-.01-.02-.02-.03-.04.05.02.09.03.14.05-.02,0-.03,0-.04.01ZM89.09,907.56s-.02-.03-.02-.05c.03,0,.07,0,.1,0-.03.02-.05.02-.08.04ZM90.47,897.28s-.05.05-.08.07c0-.04.01-.09.02-.14.02.02.04.04.06.05,0-.03,0-.04.01-.07,0,.03,0,.06,0,.09,0,0,0,0-.02,0ZM92.76,1056.47s-.02-.06-.03-.08h0s.04,0,.07,0c-.01.03-.02.05-.03.08ZM95.65,1078.85s0-.07,0-.1c0,0,0,0,0,0,0,.02.01.02.02.04,0,.02-.01.04-.02.06ZM96.72,902.1s.01,0,.02,0c0,0,0,0,0,.01,0,0-.01,0-.02,0ZM97.08,1089.74s0-.02.01-.03c0,.02.02.03.02.05-.01,0-.02-.01-.04-.02ZM103.69,908.18s.02,0,.03-.01c.09.16.16.3.22.43-.1-.14-.18-.28-.26-.42ZM104.09,1062.63s.07.04.1.05c0,0,0,0,0,0-.03-.02-.07-.04-.1-.06ZM104.38,1098.75s.05-.02.08-.03c.01.02.02.04.03.06-.03,0-.08-.01-.11-.02ZM104.51,1098.81s0-.02-.01-.03c0,0,.02.02.02.02,0,0,0,0-.01,0ZM104.59,1062.92c-.13-.06-.22-.12-.33-.19.06.03.11.05.16.08.08.04.17.09.26.13-.03,0-.05,0-.09-.02ZM104.9,1062.89c-.03-.22.05-.09,0,0h0ZM106.86,1090.3s.03-.01.04-.02c0,.02,0,.04.01.05-.02-.01-.04-.02-.06-.03ZM115.96,1085.2h0s-.01-.02-.02-.02c0,0,.02,0,.03,0,0,.01,0,.02,0,.03ZM117.19,976.27s-.07-.09-.11-.14c.07.02.15.05.22.07-.04.02-.07.05-.12.06ZM117.43,1071.17s.06-.05.1-.07c.02.03.03.05.04.08-.04,0-.09,0-.14,0ZM124.02,1065.16c-.02.06-.04.13-.07.19-.05-.1-.1-.16-.14-.25.07,0,.14.04.21.05ZM121.65,1030.87s0-.02-.01-.02c.11-.07.21-.12.32-.16-.1.06-.21.12-.31.18ZM121.58,932.89c.1-.28.19-.58.3-.81h0s0,0,0,0c.05.01.1.03.15.04-.14.39-.29.63-.45.77ZM123.84,1111c-.04-.12-.07-.24-.09-.38.13-.06.26-.13.36-.23-.13.22-.21.42-.27.61ZM125.97,1001.11s-.02-.05-.03-.07c.03,0,.06,0,.1,0-.02.02-.04.04-.06.06ZM131.04,980.39s0-.01,0-.02c.15.02.31.03.47.05,0,.02,0,.03,0,.04-.16-.03-.31-.05-.47-.08ZM133.27,1094.7s-.03-.04-.04-.05c.02,0,.03-.01.05-.02,0,.02,0,.05,0,.07ZM133.45,1095.56s.07-.02.11-.03c.01.04.03.08.04.12-.06-.02-.1-.06-.15-.09ZM135.04,958.42c-.09-.08-.19-.16-.28-.24.12-.08.24-.15.37-.23h0c-.04.17-.07.32-.1.47ZM140.06,1053.94s0,0,0,0c-.04-.05-.08-.09-.11-.14.04.04.09.09.12.13h0s0,0,0,0ZM520.35,858.77c-.04.23-.11.47-.22.7-.14-.01-.26-.04-.38-.07.18-.16.38-.38.6-.63ZM509.15,870s0,0,0,0c0,0,0,0-.01,0,0,0,0,0,0,0ZM503.42,876.75s0,.01.01.02c0,.02-.01.04-.02.06,0-.03,0-.05,0-.08ZM499.11,913.68s0,.06,0,.09c-.01-.02-.03-.05-.04-.08.01,0,.03,0,.04-.01ZM477.49,917.42s0,0,0,0c-.02,0-.04-.01-.06-.02,0,0,0,0,0,0,.02,0,.05.01.07.02ZM473.65,914.93s0,0,0,0c-.1,0-.19-.02-.28,0,0,0-.01-.02-.02-.03.11,0,.2.02.3.03ZM455.75,899.69c-.02.07-.02.14-.04.21h0c-.05-.05-.11-.11-.16-.16.07-.02.14-.04.2-.05ZM454.5,970.65c.04.09.07.19.09.28-.14-.07-.28-.13-.43-.18.11-.04.22-.07.33-.11ZM443.56,972.87s.01,0,.02.01c-.31.63-.53,1.31-.65,2.02-.12-.64-.02-1.31.62-2.04ZM440.71,964.96c-.04.49-.09.98-.15,1.47-.02-.5.02-1,.15-1.47ZM440.07,952.65s.01.01.02.02c0,0,0,0-.01.01,0,0,0-.02,0-.03h0s0,0,0,0h0ZM434.89,906.1s0,0,0,0c.07.1.13.17.19.26-.07,0-.15,0-.21.02,0-.1,0-.18.01-.28ZM428.68,928.04s0,0,0,0c0,0,0,0,0,0,0,0,0,0,0,0ZM426.8,926.78h0,0s-.04.03-.06.04c-.02-.08-.03-.16-.05-.24.04.06.07.13.11.19ZM423.75,904.63c.05,0,.11.01.16.02,0,.01.01.03.02.04-.07-.01-.14-.04-.2-.05,0,0,.01,0,.02,0ZM414.4,959.89s.04,0,.07-.01c-.02.05-.04.09-.07.14,0-.04,0-.09,0-.13ZM410.62,936.26c.01.05.01.09.02.14-.04-.03-.07-.06-.12-.09.03-.02.07-.03.1-.05ZM397.17,926.74c.13.24.25.48.34.72-.19-.16-.36-.36-.51-.57.06-.05.11-.09.17-.14ZM392.92,938.54s0,0,.01.01c0,.02,0,.04,0,.07-.01.01-.03.02-.04.04,0-.04.03-.08.03-.12ZM389.94,950.21c.1.18.22.37.37.56-.01.04-.03.09-.04.13-.4-.27-.45-.49-.33-.69ZM378.84,1023.88s0,.03,0,.04c-.01,0-.02-.02-.03-.03.01,0,.03,0,.04-.02ZM377.39,958.47c.09.21.16.44.24.66-.13.07-.25.14-.38.2-.06-.35.01-.62.14-.86ZM375.82,1027.35s-.08.04-.12.07c-.11-.05-.2-.13-.29-.2.13.02.27.07.41.13ZM373.08,962.65c0-.05.03-.1.04-.15.02.03.05.06.08.09-.04.02-.08.04-.11.06l.15.08c-.06.03-.13.07-.19.1.01-.06.02-.12.04-.18ZM370.33,968.02s0,0,0,0h0s0,.01,0,.02c0,0-.01-.01-.02-.02,0,0,.01,0,.02,0ZM365.23,1039.66s-.04.07-.06.1h0s0,0,0,0c-.02-.03-.03-.06-.05-.09.04,0,.08,0,.11,0ZM357.3,949.45c-.16.02-.34.03-.51.04-.02-.03-.05-.07-.07-.1.19-.03.39,0,.58.06ZM344.69,969.13s-.03,0-.04-.01c-.04-.04-.09-.07-.13-.11.07,0,.15,0,.23,0-.02.04-.03.08-.05.12ZM344.61,958.68c-.08.09-.13.18-.22.27-.3-.16-.46-.35-.56-.57.29.13.55.23.78.3ZM343.12,1055.66s0,0,0,0c0,0,0-.02.01-.02,0,.02.02.03.02.05-.02,0-.03,0-.05-.01,0,0,0,0,0-.01ZM341.45,959.03s0,.03-.02.05c0,0,0,.01,0,.02,0,0,0,0,0,0v-.02s-.02-.04-.03-.06c.02,0,.03,0,.05,0ZM337.49,963.66c-.15.28-.34.54-.6.77-.52-.74-1.19-1.37-1.88-1.99,1.19.49,1.95.96,2.49,1.22ZM331.08,989.83s.08.05.12.07c-.05.02-.09.04-.14.06,0-.04,0-.09.01-.13ZM324.72,1069.42s.01.02.02.04c0-.01.01-.03.02-.04,0,.02,0,.04,0,.06,0,0,0,0,0,0-.02.01-.05.03-.07.04.01-.04.04-.05.05-.1ZM307.44,1031.37c-.06.05-.13.1-.2.15-.04-.06-.07-.11-.11-.17.1,0,.21,0,.31.01ZM300.98,969.88c-.23.44-.59.62-1.02.66.31-.23.65-.45,1.02-.66ZM293.24,1076.41c-.04.07-.08.15-.12.22.08.15.12.3.13.44-.09-.12-.2-.23-.32-.35.06-.03.13-.06.19-.09l-.22-.14c.11-.02.22-.05.34-.07ZM292.59,1109.98c.04.1.08.19.12.28-.1.05-.19.08-.29.12.06-.14.11-.25.17-.4ZM284.97,1064.32s.01.05.02.08c-.04,0-.07-.02-.1-.03.03-.02.05-.03.08-.05ZM284.29,1037.58l.06.16h0s-.03.07-.05.11c-.02-.1-.04-.19-.06-.29.02,0,.03,0,.05.02ZM173.7,1037.43s.03.02.04.02c-.02,0-.03.01-.05.02,0-.02,0-.03,0-.05ZM170.95,1041.28s-.06.08-.09.11c-.02-.03-.03-.06-.05-.09.05,0,.09-.01.14-.02ZM160.02,1007.85s0,0,0,0c0-.02,0-.04-.01-.05,0,.02.02.04.02.06ZM159.04,1032.59s.09-.02.14-.03c-.03.04-.07.08-.1.13-.02-.03-.05-.05-.07-.09.01,0,.03,0,.04,0h0s0,0-.01-.01ZM153.31,1028.6s0,.05-.01.07c0,0-.01,0-.02,0,0,0,0,0,0,0,0,0,0,0,0-.01.01-.01.03-.03.04-.04ZM150.13,991.16s0-.01,0-.02c.03.01.07.04.1.05,0,0,0,.01-.01.02-.03-.02-.07-.03-.1-.05,0,0,0,0,0,0ZM147.99,1104.01c.09-.02.18-.03.27-.04-.09.07-.19.13-.29.21h0c0-.05,0-.11.01-.17ZM147.28,1028.41s.04,0,.06-.02c0,.04-.02.07-.02.11-.02-.01-.03-.02-.05-.03,0-.02,0-.04,0-.06ZM150.82,1189.61s.08-.04.12-.05h0s0,0,0,0c.01.07.03.14.04.2-.05-.05-.1-.11-.16-.15ZM163.65,1160.72c-1.82.75-2.17,2.38-2.24,4.19.27.14.41.33.5.53-.75,1.79-1.51,3.58-2.26,5.36-.32.33-.69.62-1.14.82-1.39,2.95-3.93,5.41-4.15,8.87-1.18-2.8.28-6.15-1.48-8.83-.09-.05-.17-.13-.25-.19,2.25-5.37,1.56-10.19-1.98-14.46-.05-.48-.09-.95-.03-1.43.04-.96-.18-1.83-.83-2.57-.41-.39-.85-.75-1.28-1.12-.22-.42-.45-.83-.67-1.25,0,0-.01,0-.02,0,1.71-4.51-2.36-7.54-2.95-11.46,0,0,0,0,0,0-.47-1.69-.95-3.37-1.43-5.06,0,0,0,0,0,0,.07-.46.14-.92.21-1.38h0s0,0,0,0c-1.08-3.18,2.27-5.85,1.02-9.05,1.8-1,2.17-2.69,2.21-4.54,2.05-1.77,2.32-4.43,3.34-6.71.88-1.49,2.26-2.77,2.1-4.73,2.75-4.65,3.51-9.76,3.47-15.06-.3-.59-.6-1.18-.9-1.78,0,0,0,0,0,0,1.09-4.54.74-9.4,3.03-13.68h0c1.04-5.1,1.85-10.23,1.89-15.46h0c-1.22-3.16,1.22-5.82,1.2-8.82h0c.7-1.25-.28-2.15-.65-3.18h0c1.17-.7,2.35-1.4,3.52-2.1h0c1.93-1.52,3.86-3.04,5.79-4.56,0,0,0,0,0,0,4.22.17,7.08-2.76,10.44-4.54.16.02.31.04.47.07.29-.01.57-.07.85-.15,1.28,1.76,3.03,1.32,4.83.68.09-.1.16-.22.23-.33l.26.04.22-.36s0,.01,0,.02c1.93,2.57,4.52,2.99,7.45,2.28.11-.09.18-.19.28-.28,2.1,1.36,2.43-.53,2.99-1.99.09.18.23.31.39.41-.03.05-.05.09-.09.14-.43,2.14-1.21,4.27-.18,6.45.05.06.09.11.14.16-.69,3.43-1.39,6.85-2.09,10.28-.89,4.84-1.77,9.68-2.66,14.52-.59,1.89-1.19,3.78-1.78,5.66-.25.96-.5,1.92-.75,2.88,0,0,0,0,0,0-.85,2.47-2.68,4.56-2.84,7.29-3.44,5.71-4.18,12.15-5,18.57-1.21,4.23-2.42,8.46-3.63,12.69-1.24,1.87-2.66,3.66-2.53,6.1-.78,1.33-1.16,2.76-1.06,4.31-1.05,1.74-1.76,3.58-1.66,5.66-.14,2.23-2.57,3.12-3.03,5.16,0,.01.01.03.02.04-5.19,6.37-8.21,13.47-7.29,21.87ZM218.63,1124.83s.05-.03.08-.04c0,.02,0,.03,0,.05-.03,0-.06,0-.09,0ZM242.64,1080.19c-.04-.06-.09-.12-.13-.18.11,0,.18,0,.28,0-.05.06-.1.12-.15.18ZM242.94,1112.71l-.09-.07s.08-.03.12-.05l-.03.12ZM246.21,1128.87s-.01,0-.02,0c0-.01,0-.02-.01-.03.03,0,.06.01.09.02-.02,0-.04.01-.06.02ZM248.02,1087.45h0s-.03,0-.04,0c-.02-.02-.04-.05-.05-.07.04,0,.08,0,.12-.01,0,.03-.02.06-.03.09ZM249.41,1115.46s-.03.06-.04.09c0-.03,0-.05,0-.08.01,0,.03-.01.04-.02,0,0,0,0,0,0,0,0,0,0,0,0ZM250.87,1114.27s.05-.04.07-.06c.04.06.08.11.12.17-.06-.04-.11-.09-.19-.12ZM251.18,1143.83s0,0,0-.01c0,0,0,0,.02,0,0,0,0,0-.01.01ZM252.83,1140.74s-.02-.04-.03-.06c.05-.01.1,0,.14-.02-.04.03-.07.05-.11.08ZM264.13,1140.27c-.04-.12-.09-.23-.12-.35.1.09.2.17.3.26-.06.03-.12.06-.17.1ZM265.31,1103.85h0s0,0,0,0c0,0,0-.02,0-.02,0,0,0,.01.01.02,0,0-.01,0-.02,0ZM268.48,1064.4c-.07-.06-.13-.13-.2-.18,0,0,0,0,0,0,0,0,0,0,0,0,.1.04.18.05.27.08-.03.03-.05.07-.07.1ZM277.74,1038.54h0c-.07.03-.14.06-.21.09-.01-.04-.02-.08-.03-.12.08.01.15.03.24.04ZM274.3,1027.67c0,.34-.01.65-.02.94-.11,0-.23,0-.37.04.13-.31.25-.61.39-.98ZM273.47,1016.05s.04.04.08.06c-.03.01-.05.03-.08.04h0s0-.07,0-.11ZM259.72,1010.74s.02,0,.04,0c0,0,.01.02.02.03-.02,0-.05,0-.07,0,0,0,.01-.02.02-.03ZM247.56,1029.33s.03.05.04.07c-.03.02-.06.04-.08.05.02-.04.03-.08.04-.12ZM212.38,1029.95c-.24-.21-.51-.39-.77-.56.13-.03.24-.04.37-.09.81-.26,1.16-.75,1.16-1.43.22-.12.44-.25.66-.38,1.49-1.57,3-3.13,4.23-4.92.05-.18.08-.35.12-.52,4.51-1.42,8.81-1.87,12.38,2.46.56.68,1.83.76,2.77,1.12.23.24.48.46.74.67,1.01,1.77,2.35,1.18,3.7.51h0s.22.35.22.35l.18.37h0c-.43,2.73,1.13,4.23,3.31,5.34,1.6,1.27,3.45,1.65,5.44,1.55,1.05-.04,2.1-.09,3.14-.13.95.22,1.91.45,2.86.67h0c3.24,1.91,6.72,3.09,10.47,3.46h0s0,0,0,0c2.92.34,5.83.67,8.75,1.01.31.35.62.71.93,1.06.12.21.29.39.48.53-2.26,4.08-7.46,4.9-9.85,8.83-.71.87-1.42,1.74-2.13,2.61h0c-4.59,4.61-8.52,9.91-13.99,13.62-1.24,1.11-3.28,1.29-3.81,3.24-1.81,2.22-3.12,4.72-4.21,7.35-2.16,2.05-4.56,3.9-5.71,6.8-1.63.7-2.18,2.21-2.75,3.69-.93,1.07-1.87,2.14-2.8,3.21-1.51,1.43-2.79,3.01-3.3,5.1h0c-.34.7-.68,1.4-1.02,2.09-.86,2.02-1.72,4.04-2.58,6.07-.99,1.79-1.97,3.57-2.96,5.36-1.1,1.29-2.43,2.46-2.44,4.36-.89,1.24-2.25,2.21-2.32,3.93.13.33.26.65.4.98-2,1.16-3.87,2.42-4.31,4.94h0c-.11.41-.21.82-.32,1.23-3.06,2.68-3.51,6.7-5.2,10.08-.26-.15-.59-.24-1.03-.22-5.18,2.89-9.3,7.32-14.52,10.18-.46.53-.69,1.07-.79,1.6-1.2-.25-2.03.21-2.5,1.31-.15-.11-.28-.22-.46-.32-4.26.18-8.47.49-11.23,4.35-.02-.02-.04-.04-.05-.06-2.26-1.78.07-3.85-.38-5.75-.06-.23-.1-.47-.14-.71.61-1.61,1.18-3.25,2.08-4.68,2.55-4.11,4.07-8.5,4.6-13.28h0c.29-.97.57-1.95.86-2.92,0,0,0,0,0,0,2.44-3.54,3.37-7.58,3.9-11.75,1.68-2.95,1.74-6.36,2.63-9.53.14-.01.2-.1.1-.38h0s0,0,0,0h0c.54-2.65,1.08-5.31,1.62-7.96h0c1.72-4.84,4.35-9.37,4.87-14.61h0c.67-1.21,1.02-2.44.23-3.74.7-1.59,1.4-3.18,2.1-4.77,2.17-4.3,2.54-8.99,2.99-13.66h0c1.7-2.97,1.75-6.42,2.76-9.59.11,0,.2.01.31,0,2.34-3.67,1.78-7.92,2.38-11.94,0-.02,0-.04,0-.06,4.02-.01,6.69-1.95,7.83-6.06ZM184.15,746.03s.05.05.08.07c.03,0,.06-.02.09-.03-.02.03-.04.05-.07.07,0-.01-.01-.03-.02-.04-.08.02-.17.03-.25.05.08-.03.12-.08.17-.12ZM179.95,738.73s-.07.06-.11.1c-.04-.06-.08-.12-.12-.18.08.04.15.06.23.09ZM179.21,869.1s.05-.07.08-.11c.01.03.03.05.04.08-.04.01-.08.02-.12.03ZM183.96,820s0,0,0,0h0s0,0,0,0ZM208.36,916.01c-.91-1.11-.71-2.64-1.63-3.67-.35-.32-.64-.67-.89-1.03,0-.43,0-.85.01-1.28-.45-.76-.9-1.53-1.35-2.29-.08-.45-.14-.9-.19-1.36-.14-.43-.34-.84-.61-1.2.05-.68-.63-.91-1.31-1.15-.34-.63-.68-1.26-1.02-1.89.07-.12.15-.25.25-.4.11-1.19-.14-2.3-.64-3.37-.74-1.02-1.68-1.42-2.92-.99-.26,0-.33.16-.34.36-.51-.99-1.05-1.95-2.3-2.2-.71-1.14-1.42-2.28-2.13-3.41,0,0,0,0,0,0-1.32-2.22-2.52-4.47-1.57-7.19-.09-.11-.2-.2-.31-.29.03-.04.07-.06.11-.1h0l.2.39c3.73-2.13,4.36-5.31,3.07-9.13.22-.43.45-.86.67-1.29h0c.14-.47.28-.94.41-1.4h0c.81-1.37,1.23-2.84,1.06-4.44.46-1.93.83-3.85-.85-5.45h0c-1.09-2.14-2.18-4.29-3.26-6.43,0,0,0,0,0,0,.15-2.38-1.41-4.05-2.44-5.94h0c-.08-.35-.25-.64-.51-.89-.24-1.41-.47-2.83-.71-4.24-.01-.44-.03-.89-.04-1.33-.7-3.05,1.66-5.62,1.37-8.61.21-1.61.42-3.22.63-4.83.11,0,.15-.12.06-.46.8-1.57,1.26-3.11-.26-4.55,1.37-.82,1.71-2.05,1.39-3.54.06-1.5.13-2.99.19-4.49.3-3.11-.3-6.05-1.58-8.87.06-.26.04-.46-.02-.64-.06-2.02-.34-4-1.19-5.88-.24-1.86-.49-3.71-.73-5.57h0c-1.98-5.31-3.68-10.77-8.14-14.71-1.18-2.01-2.36-4.03-3.54-6.04.11-.31.29-.56.55-.76.86.91,1.95,1.13,3.13,1.07,0,0-.01,0-.02,0h.02s0,0,0,0c.06-.02.13-.04.19-.06-.05.1-.09.21-.14.31,1.4,2.28,3.48,2.49,5.83,1.92.09-.06.16-.12.24-.18,3.42,2.42,7.14,1.65,10.86.84.99,1.89,2.68,2.07,4.63,1.67.04.25.03.52-.05.81,2.33,1.89,2.98,4.34,2.99,7.29,0,2.83-.25,5.92,2.22,8.15.03,0,.05,0,.08,0-2.94,4.67-.55,9.23.42,13.82.11.03.2.05.31.08-1.43,3.2-1.72,6.31.34,9.23-.15.23-.29.46-.4.71.01,4-2.77,8.12.48,11.96-.1.03-.2.04-.3.07-2.36,4.67-1.43,9.77-1.83,14.68-.16,1.96-.39,4.22,1.55,5.74.16,0,.35-.07.55-.18-.08.11-.15.22-.26.32-.1.18-.19.36-.29.55-.55,1.12-.59,2.25-.41,3.4-.12.72-.32,1.43-.7,2.1-.67,3.85-1.76,7.71.27,11.49-1.31,1.87-1.09,3.67.45,5.41.14.02.28.05.42.08-.03.25.08.44.33.57-.13.03-.26.03-.4.07-1.76,2.7-.57,5.27.39,7.85.18.3.43.52.69.72-.06.19-.11.39-.17.58-.14-.03-.29-.02-.45.06-2.42,2.4-2.28,5.03-.65,7.77.08.07.16.13.23.2-2.06,3.07-1.75,6.26-.26,9.52.17.06.33.07.5.1.33.56.66,1.12.99,1.68-.25.22-.49.46-.68.74-.62,2.07-.67,3.98,1.24,5.35-1.35.8-.98,2.87-1.85,4.06ZM251.46,903.69c-.03-.1-.06-.21-.1-.31.08.04.16.09.24.13-.06.05-.09.12-.14.18ZM298.42,878.41c0-.06.02-.11.03-.17.04,0,.07,0,.11,0,.05.07.1.14.1.14-.08,0-.15.02-.23.03ZM301.85,863.59c-.08-.09-.16-.18-.24-.27,0-.04,0-.08,0-.12.12.08.25.13.39.14-.05.08-.11.16-.17.25ZM309.66,894.06c.02-.07.03-.13.05-.2.03.05.06.1.08.16-.04,0-.09.02-.13.04ZM313.95,867.44s0,0,0,0h0s0,0,0,0ZM313.95,867.43s-.02-.04-.04-.06c.04,0,.07.01.11.01-.02.01-.05.03-.07.04ZM316.81,859.87s0,0,0,0c0,0,0,0,0,0,0,0,0,0,0,0ZM317.48,865.21s0-.07,0-.11c.04.02.07.05.11.08-.04,0-.07.03-.12.04ZM321.22,846.73s.03-.07.04-.11h0s0,0,0,0c.01,0,.02.02.03.03-.02.03-.05.06-.07.08ZM323.77,870.06c0-.26-.04-.46-.13-.59.35.13.57.29.13.59ZM332.1,840.59c-.03-.08-.06-.16-.09-.23.05.06.11.12.16.18h0s-.05.03-.07.04ZM345.42,874.81s-.02-.01-.03-.02h0s0,0,0,0c.02,0,.04,0,.05,0,0,.01-.02.02-.02.03ZM350.65,867.07h0s0,0,0,0c.01,0,.02,0,.03,0,0,.02,0,.04,0,.06-.01-.03-.02-.05-.03-.07ZM352.45,836.4s-.02-.03-.03-.05c.02,0,.03,0,.05,0,0,.02-.02.03-.03.04ZM352.61,849.39s0,0,0,0c0,0,0,0,0,0,0,0,0,0,0,0ZM352.7,841.12s-.04-.02-.05-.04c.02-.01.04-.02.05-.03,0,.02,0,.05,0,.07ZM352.81,816.18c-.01-.11-.02-.22-.03-.33.02.01.03.01.04.03,0,.06,0,.11,0,.17-.01.05-.01.09-.02.14ZM353.49,867.89s-.03-.02-.05-.02c0,0,0-.02,0-.03.03.01.05.02.08.04-.01,0-.03,0-.04.01ZM356.51,884.06c-.15-.08-.31-.12-.5-.1,0,0,0,0,0,0,.14.04.3.06.48.08,0-.04,0-.08,0-.13.04.04.07.09.11.15-.03,0-.06,0-.09-.01,0,0,0,.01,0,.02ZM357.44,864.5s0,0,0,0c0,0,0,0,0,0,0,0,0,0,0,0ZM364.01,876.27s0,0,.02-.01c0,0,.02,0,.02,0,0,.01.02.02.02.04-.02,0-.04-.02-.06-.03ZM369.69,892.46c.07.03.13.05.2.08.02.09.04.17.06.26-.09-.12-.16-.21-.26-.34ZM369.94,838.53c0-.14-.03-.26-.05-.38.12.05.24.11.35.2-.1.06-.19.11-.29.17ZM371.13,840.18s0,0,0,0c0-.02,0-.04,0-.06,0,0,0,0,0,0,0,.02,0,.04,0,.06ZM380.96,840.75s.08.09.12.21c-.04-.07-.08-.13-.12-.21ZM383.46,834.46c-.19.03-.35.06-.5.1.01-.19.04-.37.07-.56.14.13.28.28.43.46h0s0,0,0,0c0,0,0,0,0,0ZM387.14,834.75s.02-.03.03-.04c0,.02.02.03.03.05-.02,0-.04,0-.06,0ZM390.7,796.81s-.09-.05-.14-.08c.05,0,.09,0,.14,0,0,.02,0,.05,0,.07ZM391.55,845.93s0,0,0-.01c0,0,0,0,0,.01,0,0,0,0-.01,0ZM397.44,812.66c.13-.13.25-.25.38-.38.07.08.13.17.2.24-.18.04-.37.09-.58.14ZM412.17,843.37s0-.02.01-.03l.02.04s-.02,0-.03,0ZM412.22,843.4s0-.01-.01-.02c.01-.02.03-.03.04-.05-.01.02-.02.05-.03.07ZM416.87,800.47s-.04-.03-.06-.05c.03,0,.06-.01.09-.02,0,.02-.02.04-.03.06ZM420.36,819.77s0-.02,0-.03c0,0,0,.01,0,.02,0,0,0,0,0,0ZM421.09,809.4c-.03-.07-.04-.12-.07-.19.03.07.06.13.08.19,0,0,0,0,0,0ZM428.94,764.98s.01-.05.02-.07c.01.02.02.04.04.07-.02,0-.03,0-.06,0ZM434.72,758.22s0-.01,0-.02c0,0,.02,0,.03,0,0,0-.02,0-.02.01ZM435.64,787.48v-.02s0,0,0,0c0,0,0,.02,0,.02ZM436.08,786.09c.02-.08.05-.17.07-.25.03.05.06.09.1.14-.06.04-.11.08-.17.11ZM441,803.45s0,0,0,0h0s0,0-.01,0ZM441.01,803.45s0,0,0-.01c.03.02.07.04.11.06-.03-.01-.06-.03-.1-.05ZM442.34,821.41c.14-.11.29-.2.41-.33.27.65.57,1.35.85,2.11-.47-.7-.88-1.28-1.26-1.78ZM445.5,809.26s-.06-.04-.09-.06c0-.01-.01-.02-.02-.03.06.01.11.02.17.03-.02.02-.03.04-.05.06ZM451.11,781.11s.01-.08.02-.12c.02.02.04.05.07.08-.03.01-.06.03-.09.04ZM461.47,774.1h0s0,0,0,0c0-.02,0-.05-.01-.07.02.02.03.03.05.05-.01,0-.03.02-.04.02ZM479.03,811.89s.08-.07.13-.11c0,.05,0,.1,0,.15-.04-.01-.09-.03-.13-.04ZM479.3,788.32s.04-.03.06-.05c.01.03.03.06.04.09-.04-.02-.07-.03-.11-.05ZM496.9,748.5s0,0,0,0c0,0,0,0,0,0,0,0,0,0,0,0ZM499.77,738.47s0,0-.01,0c0,0,0,0,0,0,0,0,0,0,.01,0,0,0,0,0,0,0ZM506.31,783.61s-.06-.03-.09-.04c-.01,0-.02,0-.04,0,.27-.31.56-.54.86-.7-.07.29-.29.54-.73.73ZM534.89,743.83s0,0,0,0c0,0,0,0,0,0,0,0,0,0,0,0ZM537.58,731.72s-.02-.06-.03-.09c0,0,0-.02.01-.02.03,0,.05,0,.07,0-.02.04-.04.08-.05.12ZM541.34,753.27h0s-.02-.03-.02-.05c.01,0,.02,0,.03,0,0,.02,0,.03,0,.05ZM541.35,734.22s0-.03,0-.04c0,.01.01.02.02.04,0,0-.02,0-.03,0ZM542.83,690.48c.05-.06.09-.11.14-.17.03.05.06.1.08.15-.08,0-.15.01-.23.02ZM543.38,727.16h0,0s0,0,0,0c-.03,0-.05,0-.08,0,0-.02-.01-.04-.02-.07.04.02.07.04.11.06h0s0,0,0,0ZM544.3,696.88h0s-.04-.07-.05-.1c.02-.01.05-.03.07-.04,0,.05-.01.09-.02.14ZM551.4,750.03s.07-.03.11-.05c0,.07.02.13,0,.2-.04-.05-.08-.1-.11-.16ZM563.55,708.73c.06-.21.11-.43.19-.65.3.04.5.16.66.32-.32.11-.6.22-.85.33ZM580.41,686.03c-.09-.21-.13-.42-.09-.66-.02.19.02.36.09.52,0,.05,0,.1,0,.14ZM585.97,714.04s-.06,0-.09,0c.02-.02.04-.05.05-.07.01.03.03.04.04.07,0-.02,0-.03,0-.04,0,.02.01.03.02.05,0,0-.01,0-.02,0ZM600.68,699.9h0s0,0,0,0c.03-.1.02-.19.04-.29.04.07.08.13.12.2-.05.03-.11.06-.16.09ZM615.53,694.91s.04-.02.05-.03h0s.38.28.38.28c-.14-.11-.29-.18-.44-.25ZM648.51,684.78c.02-.08.04-.15.06-.23.08.02.14.04.22.05-.1.06-.18.12-.28.18Z"/>
    <polygon points="72.43 350.74 72.43 350.74 72.43 350.74 72.43 350.74 72.43 350.74"/>
    <path d="M356.51,884.03s0,0,0,0c0,0,0,0,0,.01,0,0,0,0,0,0,0,0,0,0,0-.01h0Z"/>
    <polygon points="585.97 714.03 585.96 714.04 585.97 714.04 585.97 714.04 585.97 714.03"/>
    <path d="M359.79,386.24s0,0-.01-.01c0,0,0,0,0,0,0,0,0,0,0,0,0,0,.01,0,.02,0Z"/>
    <polygon points="401.04 175.22 401.04 175.22 401.04 175.22 401.04 175.22 401.04 175.22"/>
    <polygon points="90.47 897.27 90.47 897.27 90.47 897.28 90.48 897.28 90.47 897.27"/>
    <polygon points="5.42 836.62 5.42 836.63 5.42 836.62 5.42 836.62"/>
    <path d="M355.77,330.19s0,0,0,0c0,0,0,0,0,0,0,0,0,0,.01,0,0,0,0,0-.01,0h0Z"/>
    <polygon points="333.63 373.5 333.64 373.5 333.64 373.5 333.63 373.5 333.63 373.5"/>
    <polygon points="388.89 123.76 388.89 123.75 388.89 123.75 388.89 123.75 388.89 123.75 388.89 123.76"/>
  </g>
  <path d="M427.41,114.55h146.85c4.9,0,8.88,3.98,8.88,8.88v64.99h-164.6v-64.99c0-4.9,3.98-8.88,8.88-8.88Z"/>
</svg>